<svg xmlns="http://www.w3.org/2000/svg" width="988.481" height="1028.4" viewBox="0 0 988.481 1028.4">
  <g id="GAPIcon" opacity="0.56">
    <g id="Background" transform="translate(392.182)">
      <path id="Path_635" data-name="Path 635" d="M295.7,3.846,300.872,0l213.8,380.113L812.818,226.529,892,373.747,866.665,436.48,714.275,701.471,527.4,1027.87l-192.842.531L297.822,57.3Z" transform="translate(-295.7)" fill="#e8e8e8"/>
      <path id="Path_636" data-name="Path 636" d="M310.2,394.162,509.938,286.6,699.331,634.882,526.517,934.357H329.431Z" transform="translate(-290.969 93.513)" fill="#919191"/>
    </g>
    <g id="Side_Building" transform="translate(410.898 223.422)">
      <g id="Group_56" data-name="Group 56">
        <rect id="Rectangle_137" data-name="Rectangle 137" width="560.089" height="7.295" transform="translate(498.31 6.445) rotate(152.082)" fill="#fff"/>
        <rect id="Rectangle_138" data-name="Rectangle 138" width="576.137" height="7.295" transform="translate(513.729 37.147) rotate(152.082)" fill="#fff"/>
        <rect id="Rectangle_139" data-name="Rectangle 139" width="592.716" height="7.295" transform="translate(529.14 73.036) rotate(152.082)" fill="#fff"/>
        <rect id="Rectangle_140" data-name="Rectangle 140" width="616.722" height="7.295" transform="translate(552.06 108.89) rotate(152.082)" fill="#fff"/>
        <rect id="Rectangle_141" data-name="Rectangle 141" width="621.762" height="7.295" transform="translate(558.555 156.189) rotate(152.082)" fill="#fff"/>
        <rect id="Rectangle_142" data-name="Rectangle 142" width="598.021" height="7.295" transform="translate(539.314 221.557) rotate(152.082)" fill="#fff"/>
        <rect id="Rectangle_143" data-name="Rectangle 143" width="548.02" height="7.295" transform="translate(499.362 301.765) rotate(152.582)" fill="#fff"/>
        <rect id="Rectangle_144" data-name="Rectangle 144" width="483.298" height="7.295" transform="translate(443.117 392.598) rotate(152.582)" fill="#fff"/>
        <rect id="Rectangle_145" data-name="Rectangle 145" width="422.554" height="7.295" transform="translate(393.2 484.825) rotate(152.582)" fill="#fff"/>
        <rect id="Rectangle_146" data-name="Rectangle 146" width="369.37" height="7.295" transform="translate(347.093 566.66) rotate(152.582)" fill="#fff"/>
        <rect id="Rectangle_147" data-name="Rectangle 147" width="305.841" height="7.295" transform="translate(293.389 655.031) rotate(152.582)" fill="#fff"/>
      </g>
      <g id="Group_57" data-name="Group 57" transform="translate(1.354 3.794)">
        <rect id="Rectangle_148" data-name="Rectangle 148" width="560.089" height="7.295" transform="translate(498.31 6.445) rotate(152.082)"/>
        <rect id="Rectangle_149" data-name="Rectangle 149" width="576.137" height="7.295" transform="translate(513.612 37.209) rotate(152.082)"/>
        <rect id="Rectangle_150" data-name="Rectangle 150" width="592.716" height="7.295" transform="translate(529.023 73.098) rotate(152.082)"/>
        <rect id="Rectangle_151" data-name="Rectangle 151" width="616.722" height="7.295" transform="translate(552.06 108.89) rotate(152.082)"/>
        <rect id="Rectangle_152" data-name="Rectangle 152" width="621.762" height="7.295" transform="translate(558.438 156.251) rotate(152.082)"/>
        <rect id="Rectangle_153" data-name="Rectangle 153" width="598.021" height="7.295" transform="translate(539.314 221.557) rotate(152.082)"/>
        <rect id="Rectangle_154" data-name="Rectangle 154" width="548.02" height="7.295" transform="translate(499.362 301.766) rotate(152.582)"/>
        <rect id="Rectangle_155" data-name="Rectangle 155" width="483.298" height="7.295" transform="translate(443 392.659) rotate(152.582)"/>
        <rect id="Rectangle_156" data-name="Rectangle 156" width="422.554" height="7.295" transform="translate(393.083 484.887) rotate(152.582)"/>
        <rect id="Rectangle_157" data-name="Rectangle 157" width="369.37" height="7.295" transform="translate(346.975 566.721) rotate(152.582)"/>
        <rect id="Rectangle_158" data-name="Rectangle 158" width="305.841" height="7.295" transform="translate(293.271 655.093) rotate(152.582)"/>
      </g>
    </g>
    <path id="Path_637" data-name="Path 637" d="M882.493,368.467c-20.027,10.345-40.186,20.69-60.213,31.168-30.77,16.048-61.54,32.229-92.309,48.277-32.229,16.844-64.457,33.82-96.819,50.664-12.467,6.5-24.934,12.732-37.4,19.1-5.57,2.785-5.968,3.979-3.05,9.151,3.714,6.631,7.56,13,10.876,19.762a12.689,12.689,0,0,1,1.061,5.836l2.52,4.377c12.2-6.1,24.4-12.2,36.605-18.568,22.679-11.671,45.359-23.608,68.038-35.412,28.78-14.987,57.428-29.841,86.208-44.7,9.284-4.775,18.7-9.549,27.985-14.324,10.61-5.57,21.221-11.273,31.963-16.844,1.326-.663,2.785-.928,4.509-1.592-2.653,10.345-9.947,15.385-18.7,18.966-3.316,1.326-5.836,3.316-5.04,6.5-2.785.133-5.968-.531-8.223.663-32.361,16.446-64.457,33.157-96.686,49.6l-93.5,47.746-24.271,12.334c-3.316,1.724-3.581,4.244-1.857,7.427,4.642,8.09,9.019,16.181,13.528,24.4a8.987,8.987,0,0,1,1.194,3.05l3.316,5.968c21.884-11.273,43.9-22.679,65.784-33.953,26.658-13.661,53.317-27.454,79.842-41.115l32.229-16.711c1.326-.663,2.653-1.194,4.377-1.989-2.255,10.61-10.345,14.589-18.3,18.7-23.077,11.8-46.022,23.74-69.1,35.677-24.669,12.732-49.205,25.332-73.874,37.932-3.316,1.724-6.5,3.581-9.815,5.04-3.846,1.724-4.111,4.244-2.122,7.692,4.775,8.356,9.284,16.844,14.059,25.332,1.857,3.183,2.255,5.57.928,7.295l2.387,4.377c19.762-10.08,39.391-20.159,59.152-30.239,14.324-7.295,28.648-14.722,42.972-22.016a24.052,24.052,0,0,1,3.05-.663c-3.714,6.5-6.1,12.467-12.865,15.915-27.189,13.661-54.112,27.985-81.3,41.778-3.846,1.989-4.111,3.714-1.989,7.295,5.7,9.549,11.008,19.1,16.446,28.78,1.857,3.448,2.255,4.907.663,6.234l2.653,4.775c5.836-2.918,11.671-5.836,17.374-8.886,1.061-.531,2.255-.663,4.642-1.459-4.111,6.366-5.7,12.865-11.937,16.181a5.139,5.139,0,0,0-2.122,3.846,18.939,18.939,0,0,1-2.918,9.815l-9.549-17.242a.463.463,0,0,0,.265-.133l-2.52-4.642a.463.463,0,0,0-.265.133L654.24,652.425c.133,0,.265-.133.4-.133l-2.52-4.377a.487.487,0,0,0-.4.133l-24.138-43.635c.133,0,.265-.133.4-.133l-2.122-3.846c-.133,0-.265.133-.4.133l-22.812-41.38c.133,0,.265-.133.4-.133l-2.52-4.509h-.4l-20.69-37.269c.133,0,.265-.133.4-.133l-1.724-3.05a.487.487,0,0,0-.4.133l-19.762-35.677c.133,0,.265-.133.4-.265L556.36,474.7c-.265,0-.4-.133-.663-.133h0l-17.772-32.494c.133,0,.265-.133.4-.265l-2.122-3.846h-.531l-157.7-285.018h0c-7.295-13.528-14.722-27.189-22.149-40.717Q333.346,71.048,310.6,30h8.488c3.581,7.029,6.9,14.059,10.61,20.955,16.844,30.5,33.82,61.009,50.531,91.514,24.536,44.828,48.807,89.922,73.343,134.75,15.518,28.648,31.168,57.163,46.818,85.81,5.438,10.08,8.09,11.008,18.17,5.7q57.892-30.438,115.652-61.009,53.118-28.051,106.5-56.1c20.557-10.876,41.115-21.884,61.407-32.759,4.907,4.377,4.775,5.57,0,8.09-33.688,17.772-67.508,35.677-101.2,53.449-32.361,17.109-64.723,34.085-97.084,51.195-28.913,15.252-57.826,30.637-86.872,45.889-3.183,1.724-4.907,3.714-2.387,7.56a82.577,82.577,0,0,1,5.836,10.61c1.194,2.387,1.724,5.04,2.918,8.488,1.061-.265,2.918-.265,4.509-1.061,29.443-15.385,59.02-30.77,88.463-46.287q48.144-25.266,96.288-50.664c16.446-8.621,32.627-17.772,49.073-26.393,19.5-10.345,39.125-20.292,58.754-30.5,4.907,4.642,4.775,5.57-.663,8.488-18.17,9.814-36.34,19.762-54.643,29.311-30.239,15.915-60.611,31.433-90.718,47.348-30.107,15.783-59.948,31.831-90.055,47.746-16.181,8.621-32.627,16.976-48.807,25.465-5.836,3.05-6.234,3.979-3.316,9.682,2.255,4.111,4.907,8.09,6.9,12.334a15.51,15.51,0,0,1,1.061,5.04h0l2.653,4.775c30.9-16.048,61.937-32.229,92.84-48.409,33.29-17.507,66.579-35.147,99.869-52.653q50.134-26.459,100.4-52.653c1.592-.8,3.714-1.592,5.305-1.194.928.133,2.122,2.52,2.122,3.846,0,.928-1.592,2.122-2.785,2.653Q813.725,304.939,787,319c-31.831,16.844-63.529,33.953-95.492,50.664q-50.73,26.658-101.461,53.051c-12.069,6.366-24.271,12.6-36.34,18.966-5.172,2.785-5.57,4.377-2.52,9.549,3.183,5.438,5.968,11.141,9.284,16.446,1.194,1.989,1.459,3.714.663,5.04l1.592,3.05c18.833-9.549,37.534-19.231,56.367-29.046,22.679-11.8,45.226-23.74,67.906-35.677,24.8-13,49.6-26.128,74.4-38.993,22.679-11.8,45.359-23.475,68.038-35.279,10.61-5.57,21.221-11.273,32.361-17.242,1.194,2.255,2.255,3.979,3.448,6.1-9.151,4.907-17.9,9.682-26.791,14.191-11.008,5.7-22.282,11.008-33.29,16.844-35.942,19.1-71.752,38.595-107.694,57.693-40.717,21.486-81.566,42.706-122.283,64.192-6.1,3.183-6.366,4.111-3.05,9.947,3.183,5.836,6.5,11.671,9.682,17.507,1.194,2.255,1.459,3.979.663,5.438h0l1.857,3.448,3.979-1.989q31.632-16.114,63-32.494,67.044-34.815,134.22-69.9c32.1-16.711,64.192-33.555,96.288-50.266.663-.265,1.326-.531,1.857-.8C888.594,364.091,888.329,365.417,882.493,368.467Z" transform="translate(101.344 9.788)"/>
    <g id="Center_Building" transform="translate(0 35.81)">
      <g id="Group_58" data-name="Group 58" transform="translate(1.194)">
        <path id="Path_638" data-name="Path 638" d="M684.435,710.036l8.09,14.722a30.335,30.335,0,0,0-2.387,3.846l-9.151-16.579h0l-31.831-57.561-2.387-4.244L622.5,606.32h0l-1.989-3.581h0l-23.077-41.645h0l-1.592-2.785h0l-21.618-39.258h0l-1.592-2.918h0L302.2,27h4.642L479.391,338.942l.663-.4L685.1,709.638Z" transform="translate(97.409 -27)" fill="#fff"/>
        <path id="Path_639" data-name="Path 639" d="M417.658,788.854H404.4l-38.595-68.7-16.579,9.284c-2.52,1.194-4.907,2.387-7.295,3.581q-38,19.1-75.731,38.33c-11.008,5.57-21.884,11.539-32.892,17.374H202.8c6.764-3.714,13.263-7.56,20.159-11.008,23.077-11.671,46.287-23.21,69.365-35.014,23.475-11.8,46.818-23.873,70.16-35.81,1.194-.663,2.387-1.989,3.581-1.989,1.857,0,4.775.4,5.438,1.592,13.528,23.343,26.791,46.685,40.054,70.16C413.812,780.763,415.668,784.875,417.658,788.854Z" transform="translate(64.976 194.187)" fill="#fff"/>
        <path id="Path_640" data-name="Path 640" d="M381.529,429.967h0c-2.52-4.244-4.775-8.356-7.029-12.467Z" transform="translate(120.999 100.414)" fill="#fff"/>
        <path id="Path_641" data-name="Path 641" d="M382.8,395.355c-.265,0-.4-.133-.4-.265-3.979-6.764-7.692-13.793-11.406-20.69Z" transform="translate(119.857 86.351)" fill="#fff"/>
        <path id="Path_642" data-name="Path 642" d="M466.128,661.638a.463.463,0,0,0-.265.133c-4.377-8.09-8.886-16.181-13.263-24.271Z" transform="translate(146.482 172.196)" fill="#fff"/>
        <path id="Path_643" data-name="Path 643" d="M428.022,691.411c-.133-.133-.265-.265-.265-.4a2.774,2.774,0,0,1-.531-.8c-.133-.265-.265-.4-.4-.663a6.466,6.466,0,0,1-.4-.928c-.133-.133-.133-.4-.265-.531-.133-.265-.133-.4-.265-.663V687.3Z" transform="translate(137.77 188.445)" fill="#fff"/>
        <path id="Path_644" data-name="Path 644" d="M183.8,427.263l-30.9,15.385c3.581-1.857,7.295-3.846,10.876-5.7,6.631-3.448,13.263-6.9,19.762-10.345Z" transform="translate(48.695 103.383)" fill="#fff"/>
        <path id="Path_645" data-name="Path 645" d="M112.806,154.588,1,214.139v-7.295l16.976-9.019a22.859,22.859,0,0,0,5.04-2.255C37.075,187.878,51,180.318,65.059,172.626c12.865-7.029,25.73-14.059,38.727-20.955.8-.4,1.459-.8,2.255-1.194L221.428,88.009c23.74-12.865,47.348-25.6,71.089-38.595C306.045,41.987,319.441,34.427,332.836,27H346.5c-6.1,3.448-12.069,7.029-18.17,10.478Q273.419,67.319,218.51,97.028c-30.77,16.711-61.407,33.688-92.177,50.4-4.509,2.52-9.019,4.907-13.528,7.295Z" transform="translate(-0.867 -27)" fill="#fff"/>
        <path id="Path_646" data-name="Path 646" d="M78.322,198.754,1,238.675v-6.5l15.12-8.09h0a16.179,16.179,0,0,0,2.255-.928c-.133,0-.133-.133-.265-.133l8.621-4.642a13.838,13.838,0,0,0,3.316-1.061Q55.908,203.4,81.771,189.2c4.775-2.653,9.549-5.172,14.324-7.825l.265-.133c7.958-4.377,15.915-8.753,23.74-13q26.658-14.722,53.449-29.178c31.433-16.976,62.866-33.82,94.3-50.8l54.908-29.841C341.987,48.088,361.086,37.61,380.317,27h14.722c-8.886,4.907-17.772,9.814-26.658,14.589q-59.285,32.03-118.7,64.192-54.51,29.443-108.888,59.152c-20.69,11.273-41.38,22.414-62.07,33.688Z" transform="translate(-0.867 -27)" fill="#fff"/>
        <path id="Path_647" data-name="Path 647" d="M758.706,703.358l18.17,32.892c0,2.387-1.194,4.642-3.979,7.958l-11.539-20.823h-.133L613.875,456.67,401.007,71.517,394.376,75.1l.265.4c-.53.265-.928.531-1.459.8q-36.208,19.3-72.15,38.727-46.553,25.067-92.84,50.134c-29.046,15.783-58.224,31.566-87.269,47.216-26.393,14.191-52.786,28.25-79.179,42.441l-1.459.8L1,286.242v-8.356l33.157-17.242h.265c1.459-.8,2.918-1.459,4.509-2.387l.133-.133,12.467-6.5h0a19.467,19.467,0,0,0,1.857-.8c7.56-3.979,15.252-7.825,22.812-11.937,38.595-20.955,77.19-42.043,115.917-62.866,21.884-11.8,43.9-23.475,65.784-35.279q40.783-21.884,81.3-44.033C359.229,85.841,379.256,75.1,399.15,64.09c2.785-1.592,4.775-1.592,6.366.133h0l11.539,20.955.133.133c4.775,8.753,9.549,17.64,14.324,26.393,18.7,34.085,37.534,68.171,56.234,102.256,25.2,46.155,50.266,92.309,75.6,138.331,3.714,6.9,7.825,13.661,11.937,20.292.265.531.8.8,1.459,1.194h0l5.836,10.478h0a1.2,1.2,0,0,0-.133.663l10.743,19.5a4.416,4.416,0,0,0,.8.4l7.427,13.528h0a16.788,16.788,0,0,0,.8,2.387c2.122,5.968,6.5,14.059,9.947,18.17l6.234,11.273a1.122,1.122,0,0,0,0,.928c1.459,2.785,3.05,5.57,4.642,8.223.133,0,.265-.133.4-.133l5.305,9.549,3.183,5.7a4.031,4.031,0,0,0,.928.663l8.356,15.12h0c1.061,2.255,2.122,4.377,3.316,6.631.8,1.459,1.724,2.785,2.52,4.244v.133l4.377,7.958a4.51,4.51,0,0,1,.133,1.326h0l3.05,5.438c.133-.133.265-.133.531-.265l7.162,13,.133.133c3.581,6.631,7.029,13.4,11.008,19.762l.133.133,1.326,2.52.133.265a5.558,5.558,0,0,1,.531,1.989l2.52,4.642c.133-.133.265-.133.531-.265l5.57,10.212a.463.463,0,0,1-.265.133l5.968,10.345h0l5.7,10.345h0l2.387,4.775c.4.8.663,1.459.928,2.122h0l4.244,7.56c.133-.133.4-.133.531-.265l23.077,41.778a4.978,4.978,0,0,1,.133,1.326l2.918,5.305c.133-.133.4-.133.531-.265l26.128,47.348c-.133.133-.4.133-.531.265l2.387,4.377C758.44,703.491,758.573,703.491,758.706,703.358Z" transform="translate(-0.867 -15.282)" fill="#fff"/>
        <path id="Path_648" data-name="Path 648" d="M724.487,763.912l5.305,9.417c-1.592,2.785-3.183,5.438-4.775,8.223l-15.252-26.924c.133,0,.133-.133.265-.133l-2.122-3.714h-.4L492.918,369.211h0L406.577,215.627c-.133,0-.265-.133-.4-.133h-.8a.487.487,0,0,0-.4.133c-.133,0-.4.133-.53.133a4.711,4.711,0,0,0-1.194.531c-.133.133-.4.133-.53.265s-.4.133-.531.265a2.9,2.9,0,0,1-.663.4c-.265.133-.4.265-.663.4-1.326.8-2.785,1.459-4.111,2.255-14.722,7.825-29.444,15.65-44.033,23.475Q308.167,267.02,263.6,290.429c-24.271,12.865-48.542,25.6-72.813,38.595-15.783,8.356-31.433,16.844-47.216,25.332a5.764,5.764,0,0,0-.928.531h0L1,428.1v-8.621a60.365,60.365,0,0,0,6.764-2.785l56.9-30.239c3.846-1.989,7.692-4.111,11.406-6.1l.133-.133c22.149-11.8,44.43-23.74,66.579-35.544,4.111-2.122,8.09-4.377,12.2-6.5,31.831-16.844,63.529-33.82,95.36-50.664,27.587-14.589,55.041-29.178,82.627-43.767q36.208-19.1,72.282-38.462c2.785-1.459,4.509-2.255,5.836-1.857L578.6,503.165c.4.8.8,1.592,1.194,2.255.133.265.265.4.4.663l9.417,16.844c.4.663.663,1.326,1.061,1.857l13.13,23.475h0l15.915,28.382L724.355,763.647Z" transform="translate(-0.867 30.531)" fill="#fff"/>
        <path id="Path_649" data-name="Path 649" d="M758.971,749.986l.531.928h0c-.531,1.724-1.989,3.05-3.714,4.244-.265.133-.4.265-.663.4l-1.459-2.52h0l-2.785-5.173-24.8-44.3c.133,0,.133-.133.265-.133l-1.989-3.581c-.133,0-.133.133-.265.133h0L697.3,652.106c.133-.133.265-.133.4-.265l-1.857-3.448a.8.8,0,0,1-.531.133l-25.067-44.961c.265-.133.4-.265.663-.4l-1.326-2.52c-.265.133-.53.133-.8.265l-169.5-303.321-7.295-13.13c-7.958-14.324-16.048-28.78-24.006-43.1-14.059-25.465-27.985-50.929-42.043-76.394-4.642-8.223-9.549-16.313-14.324-24.536l-.265-.531L402.2,123.45l-6.5,3.714v.133c-11.273,5.968-22.547,11.937-33.688,18.037q-38.993,20.889-77.72,41.645c-17.109,9.151-34.483,18.037-51.46,27.189s-33.688,18.568-50.664,27.719q-46.354,24.868-92.707,49.47a9.559,9.559,0,0,0-2.52,1.857L1,337.512V327.034l65.916-34.085a2.943,2.943,0,0,0,1.194-.133,4.9,4.9,0,0,0,1.459-.663c.265-.133.4-.133.663-.265a6.466,6.466,0,0,1,.928-.4,6.466,6.466,0,0,1,.928-.4c.133,0,.265-.133.4-.133a12.324,12.324,0,0,1,1.326-.663h.133a9.892,9.892,0,0,0,1.592-.928h0v-.133c5.7-3.05,11.406-5.968,17.109-9.019s11.406-5.968,17.109-9.019c27.321-14.589,54.643-29.443,81.964-44.033q36.009-19.3,72.282-38.595,29.642-15.915,59.285-31.7c26.128-14.059,52.123-27.985,78.118-42.176,2.785-1.459,4.642-1.592,6.234-.4a9.6,9.6,0,0,1,2.122,2.785c6.631,12.334,13.13,24.669,19.762,36.871l.265.531c2.785,5.173,5.7,10.478,8.621,15.65,7.427,13.4,14.854,26.791,22.282,40.054l1.326,2.52,63.4,114.723.8,1.459c6.234,11.406,12.467,22.945,18.833,34.351a31.748,31.748,0,0,0,1.724,2.785h0l89.392,161.807.663-.4L759.634,749.588Z" transform="translate(-0.867 1.221)" fill="#fff"/>
        <path id="Path_650" data-name="Path 650" d="M699.819,747.26l18.966,33.555c-1.857,3.316-3.846,6.5-5.7,9.815L409.23,250.7,300.607,308.128h0L249.28,335.184c-21.884,11.671-43.9,23.21-65.784,35.014-2.785,1.459-5.438,2.918-8.223,4.377l-.265-.531L1,463.833v-8.356c20.292-10.61,40.452-21.221,60.744-31.963,22.016-11.671,44.033-23.475,66.182-35.147,20.16-10.61,40.319-20.955,60.479-31.566,24.4-12.865,48.675-26.128,73.211-38.993,27.852-14.722,55.837-29.178,83.556-44.033,21.486-11.406,42.839-23.21,64.192-34.749.265-.133.4-.265.663-.265a.13.13,0,0,0,.133-.133c.133,0,.265-.133.4-.133.265-.133.53-.133.8-.265.133,0,.4-.133.53-.133h1.326a.487.487,0,0,1,.4.133.463.463,0,0,1,.265.133c.133,0,.265.133.4.133.133.133.265.133.4.265s.265.133.4.265l.4.4a1.83,1.83,0,0,1,.4.531,5.375,5.375,0,0,1,.663,1.194c1.194,2.653,2.653,5.305,4.111,7.958,11.273,20.425,22.547,40.717,33.82,61.142l.8,1.459,29.841,52.919h0l33.82,59.948.265.531.133.265,2.52,4.509,4.907,8.621h0c5.438,9.947,10.61,19.5,16.181,29.443.133-.133.265-.133.4-.265l4.509,7.958,17.109,30.372,5.305,9.417h0l17.374,30.9h0l7.162,12.865h0l13.13,23.21h0a12.019,12.019,0,0,1,1.459,2.122h0a.487.487,0,0,0,.133.4h.133a11.666,11.666,0,0,1,.663,1.989h0l2.785,4.907,6.631,11.937h0l20.557,36.605,7.56,13.4,6.234,11.008h0l13.13,23.21,1.724,3.05,28.25,50.133h-.133C697.431,745.138,698.227,746.862,699.819,747.26Z" transform="translate(-0.867 41.878)" fill="#fff"/>
        <path id="Path_651" data-name="Path 651" d="M734.567,752.616l6.5,11.671c-1.724,3.05-3.581,6.1-5.305,9.151l-9.284-16.711a.411.411,0,0,0,.265-.133l-2.122-3.846c-.133,0-.133,0-.265.133l-29.178-52.388c.133-.133.265-.133.4-.265l-2.255-4.111c-.133.133-.4.133-.531.265L510.16,369.321A19.908,19.908,0,0,0,508.7,366.4c-13.4-23.873-26.791-47.614-40.054-71.487C452.6,266,436.684,236.958,420.636,208.045c-2.255-3.979-4.775-7.825-7.295-11.8-1.989-3.183-3.979-6.366-5.7-9.549-1.194-2.255-2.122-3.183-3.581-3.05a7.155,7.155,0,0,0-2.387.8c-23.74,12.6-47.614,25.332-71.354,37.932-20.159,10.61-40.186,21.353-60.346,31.963-15.65,8.223-31.433,16.313-46.95,24.536q-37,19.7-74.139,39.656c-3.714,1.989-7.427,3.979-11.008,5.968l-.265.133L1,395.448v-8.886l20.425-10.61a9,9,0,0,0,3.316-1.194c2.653-1.459,5.305-3.05,7.958-4.642l.265-.133c1.857-1.061,3.581-2.122,5.438-3.05,22.282-11.671,44.563-23.21,66.845-35.014,11.671-6.1,23.21-12.334,34.749-18.568,8.621-4.642,17.242-9.284,25.863-13.793,27.852-14.854,55.571-29.709,83.423-44.43,25.73-13.661,51.327-27.189,77.057-40.85,25.863-13.661,51.592-27.454,77.455-41.247,3.05-1.592,4.775-2.255,6.234-1.326,1.061.531,1.857,1.724,2.918,3.714,15.915,28.78,31.831,57.693,47.746,86.474,9.284,16.844,18.7,33.82,27.985,50.664l.4.663c5.438,9.814,11.008,19.762,16.446,29.576,2.122,3.714,4.244,7.427,6.366,11.273l.265.4,7.295,13.13,32.627,58.356,1.724,3.183,7.295,13h0c4.377,7.958,8.621,15.915,13,23.74a43.889,43.889,0,0,0,2.387,3.846h0l6.631,11.937.265.531c4.907,9.284,9.814,18.3,14.854,27.719.133-.133.4-.133.531-.265l5.305,9.549v.133c5.172,9.815,10.212,19.231,15.12,28.648.8,1.459,1.592,2.785,2.653,3.183h0l21.618,38.727c-.265.133-.4.4-.663.663,1.459,1.989,2.918,3.979,4.244,5.968h0l5.836,10.61c-.133,0-.4-.133-.53-.133,2.387,4.642,4.509,8.886,6.9,13.793.133-.663.133-1.194.265-1.857l11.671,20.823v.265l.531,1.061c.133,0,.133.133.265.133l15.385,27.454.4.8,13,23.21c-.133,0-.265.133-.4.265l2.255,3.979c.133,0,.265-.133.4-.133l16.844,30.107.133.265c3.05,5.836,6.234,11.8,9.549,17.507a5.288,5.288,0,0,1,.928,2.653l3.316,6.1A1.982,1.982,0,0,1,734.567,752.616Z" transform="translate(-0.867 20.076)" fill="#fff"/>
        <path id="Path_652" data-name="Path 652" d="M783.772,731.557c-.663,1.857-1.326,3.581-1.989,5.305l-12.6-22.679-.133.133L563.875,343.088h0L401.007,48.256l-6.631,3.581v.133c-18.7,10.08-36.473,19.5-54.245,29.178q-49.537,26.658-98.808,53.449c-25.332,13.793-50.664,27.719-76,41.513Q121.758,199.783,78.19,223.59c-8.753,4.775-17.64,9.682-26.393,14.456l-.4.265L1,264.174v-8.356l17.772-9.151c.133.133.133.265.265.4,3.05-1.724,5.7-3.316,8.356-4.907h.133l8.753-4.509c0,.133.133.265.133.4,5.305-2.918,10.61-5.7,15.915-8.621l.531-.265c14.854-8.09,29.841-16.181,44.7-24.271Q249.347,122.726,401.67,40.431a7.875,7.875,0,0,0,1.061-.531c1.326,2.122,2.653,3.846,3.581,5.57,12.069,22.149,24.006,44.3,36.208,66.447C457.9,140.034,473.687,167.886,489.072,196c13.926,25.332,27.321,50.929,41.115,76.261,7.692,14.191,15.385,28.25,23.077,42.441l2.255,4.112c4.112,7.427,8.09,14.854,12.2,22.282l.265-.133L773.029,712.06h0Z" transform="translate(-0.867 -22.791)" fill="#fff"/>
        <path id="Path_653" data-name="Path 653" d="M767.724,742.456c.531,3.183-.663,5.438-4.111,9.151l-25.2-45.889c.133-.133.4-.133.531-.265l-2.52-4.509c-.265,0-.4.133-.663.133l-26-46.95c.133-.133.4-.133.531-.265l-2.122-3.846a5.739,5.739,0,0,0-.663.133l-24.536-44.3c.133-.133.4-.133.531-.265l-1.592-2.918c-.265.133-.4.133-.663.265h0l-23.21-42.574c.265-.133.4-.265.663-.265l-1.326-2.52a5.742,5.742,0,0,0-.663.133h0L527.534,324.146l-.133-.265L494.775,263.4c-7.825-14.456-16.181-28.648-24.138-43.1-22.149-39.656-44.165-79.179-66.049-118.968a9.3,9.3,0,0,0-.8-1.194h0c-1.989-2.918-3.714-2.785-6.9-.928-.53.265-1.061.663-1.724.928-16.976,9.284-33.953,18.435-50.929,27.587L234.028,186.611C209.359,199.873,184.69,213,160.021,226.266c-24.4,13.13-48.675,26.128-73.078,39.391v-.133L1,309.822V302l47.746-24.669h0c.133,0,.133-.133.265-.133h0l30.637-15.783-.265-.4q59.683-32.03,119.5-64.192c23.077-12.467,46.155-25.067,69.232-37.534,31.831-17.109,63.662-33.953,95.36-50.929,12.069-6.5,24.006-13,36.075-19.5,2.387-1.326,4.377-2.122,6.234-.8a6.969,6.969,0,0,1,2.122,2.785c4.377,8.886,9.549,17.507,14.324,26.26Q454.655,176,487.215,234.887c6.366,11.539,12.732,23.21,19.1,34.881l.928,1.724c13.4,24.271,26.658,48.675,40.054,72.946,3.581,6.366,7.162,12.732,10.876,19.1l.133.265,50.4,91.248.265.4c2.918,5.7,5.968,11.406,9.151,16.976a2.329,2.329,0,0,0,.531.663l44.033,79.71h0a.994.994,0,0,1-.133.663l1.989,3.581c.133,0,.265-.133.4-.133l22.812,41.115-.4.4,2.255,3.979c.133-.133.265-.133.4-.265l23.74,42.839h0a.994.994,0,0,1-.133.663l2.653,4.907c.133-.133.265-.133.4-.265l26.128,47.083c-.133.133-.265.133-.4.265l2.52,4.509h0c.133-.133.265-.133.4-.265l22.414,40.584Z" transform="translate(-0.867 -7.297)" fill="#fff"/>
        <path id="Path_654" data-name="Path 654" d="M750.748,754.214l.8,1.459c-.663,1.459-1.061,2.52-1.592,3.448-.928,1.592-1.857,3.05-2.653,4.642l-2.785-5.04-1.061.663-129.71-234.62L404.588,150.224l-9.151,5.04.265.531-9.151,4.775c-26,13.793-51.858,27.719-77.853,41.513-29.576,15.783-59.285,31.433-88.861,47.216-22.282,11.8-44.3,23.873-66.579,35.81-15.65,8.356-31.3,16.578-46.818,24.8-.4.265-.8.4-1.194.663h-.133L1,364.684V356.2l61.937-31.963.928-.53c18.037-9.549,36.208-19.1,54.245-28.78a6.2,6.2,0,0,1,1.326-.663q55.306-29.443,110.745-59.152c27.852-14.854,55.7-29.576,83.423-44.43,30.107-16.048,60.081-32.361,90.187-48.409,1.857-1.061,3.316-1.459,4.642-.663a5.2,5.2,0,0,1,2.122,2.52c5.7,11.008,11.671,21.884,17.772,32.759,3.846,6.9,7.692,13.793,11.406,20.69l.663,1.061Q464.47,242,488.409,285.372c11.8,21.353,23.475,42.706,35.279,63.927,2.653,4.775,5.438,9.417,8.356,14.059l1.459-.8L664.142,599.171,679,626.095l11.273,20.425c.133,0,.133-.133.265-.133l6.366,11.406v.663l21.884,39.523c.133-.133.265-.133.531-.265l10.212,18.17.133.4c2.122,4.244,4.244,8.621,6.5,12.865.265.531.531.928.8,1.459l.133.133,13.13,23.74C750.217,754.346,750.483,754.214,750.748,754.214Z" transform="translate(-0.867 10.256)" fill="#fff"/>
        <path id="Path_655" data-name="Path 655" d="M681.914,745.522l24.934,44.3h0c-1.194,2.122-2.255,4.509-3.448,6.631-.265.4-.4.8-.663,1.194L413.341,283.18l-5.968,3.316-.4.265c-3.581,1.989-7.162,3.581-10.743,5.438l-78.383,41.38q-39.788,20.889-79.444,41.778c-12.467,6.631-24.8,13.528-37.269,20.16l-3.979,1.989-.4-.8L1,498.17v-7.692c1.857-1.061,3.581-2.255,5.438-3.316,24.934-13.13,49.736-26.26,74.67-39.391q62.866-33.223,125.864-66.182c40.452-21.221,80.9-42.308,121.355-63.662q40.982-21.486,81.566-43.5c.133-.133.265-.133.4-.265a.463.463,0,0,0,.265-.133c.133-.133.4-.133.53-.265.133,0,.265-.133.4-.133s.265-.133.4-.133c.265-.133.4-.133.663-.265a.487.487,0,0,0,.4-.133h1.592a.487.487,0,0,1,.4.133h.265c.133,0,.133,0,.265.133.133,0,.265.133.4.133s.265.133.4.265l.133.133.133.133.4.4.4.4h0a9.837,9.837,0,0,1,1.326,2.122c2.785,5.172,5.7,10.345,8.488,15.518l.133.265,41.645,74.139,3.714,6.631.265.4.265.4.133.265,11.141,19.762h0l7.162,12.6.265.531c3.714,6.9,7.295,13.926,11.406,20.69,0,.133.265.265.4.265l4.377,7.692,16.976,30.239,3.714,6.631,17.9,31.963,4.907,8.753h0l17.507,31.035,5.836,10.478,11.406,20.159h0v.133a10.126,10.126,0,0,1,1.061,1.459h0l.4.8.265.265h0c.133.53.4.928.53,1.459h0l5.968,10.61,5.57,9.815,21.353,37.932,26.526,47.216,2.255,3.979,28.648,50.929Z" transform="translate(-0.867 53.298)" fill="#fff"/>
        <path id="Path_656" data-name="Path 656" d="M492.577,401.458,488.2,393.5a41.292,41.292,0,0,1,4.244,7.427C492.444,401.192,492.444,401.325,492.577,401.458Z" transform="translate(158.098 92.583)" fill="#fff"/>
        <path id="Path_657" data-name="Path 657" d="M509.326,431.92,508,429.4c.265.4.4.663.663,1.061C508.928,431.124,509.194,431.522,509.326,431.92Z" transform="translate(164.558 104.296)" fill="#fff"/>
        <path id="Path_658" data-name="Path 658" d="M690.435,796.893a13.03,13.03,0,0,0-2.122-.663,7.291,7.291,0,0,0,1.194-.928l-29.046-51.592h0l-16.844-29.974-14.456-25.73-3.581-6.366-6.1-10.876h0l-12.6-22.414h0l-7.029-12.6h0l-21.088-37.4h0l-5.04-8.886L553.164,552.99l-6.5-11.671h0v-.133l-4.244-7.427h0L534.994,520.5h0l-3.979-7.162h0l-6.5-11.671-6.5-11.539-.133-.265-14.059-25.067a.13.13,0,0,0-.133.133c-2.387-4.244-4.642-8.488-6.9-12.6l-.4-.8-.4-.663L417.751,312.137h0c-.133-.133-.265-.133-.4-.265-.133,0-.265-.133-.4-.133a.487.487,0,0,1-.4-.133,7.323,7.323,0,0,0-4.112,1.061q-54.311,28.847-108.623,57.561c-29.974,15.783-59.948,31.433-89.922,47.216-.4.265-.8.4-1.194.663-30.372,15.915-60.876,31.566-91.116,47.481-4.509,2.387-8.886,4.642-13.4,7.029l-.4.133q-34.417,18.1-68.834,36.473C26.232,515.986,13.632,522.618.9,529.382v7.162L203.291,435.481h0a7.364,7.364,0,0,1,2.255-1.459c17.109-8.886,34.085-17.9,51.062-26.791Q287.245,391.117,318.014,375q42.574-22.282,85.015-44.563a15.555,15.555,0,0,1,1.459-.663l.8-.4.8-.4c.928-.531,1.857-.928,2.653-1.326a1.885,1.885,0,0,1,.8-.265h0a4.1,4.1,0,0,1,1.061-.265h0l2.52-1.459,274.01,486.481a49.065,49.065,0,0,0,3.316-5.7c.265-.4.4-.8.663-1.194l.4-.4a1.83,1.83,0,0,1,.531-.4,1.006,1.006,0,0,1,.531-.265.411.411,0,0,0,.265-.133,1.683,1.683,0,0,1,.8-.133h.4a1,1,0,0,1,.531.133ZM659.4,743.709h.8A.846.846,0,0,1,659.4,743.709Z" transform="translate(-0.9 65.854)" fill="#fff"/>
        <path id="Path_659" data-name="Path 659" d="M515.768,810.907a8.762,8.762,0,0,1,.663,1.989H503.7l-93.37-166.051-6.366,3.581h0a3.969,3.969,0,0,0-1.061.531c-14.589,7.56-29.311,14.987-44.033,22.547L283.27,712.5q-30.239,15.517-60.479,31.3L81.94,812.9H58.2c6.5-3.581,13-7.295,19.629-10.876,13.13-7.029,26.128-14.191,39.391-20.955,24.8-12.6,49.736-24.934,74.537-37.534q30.836-15.716,62.07-31.7c25.2-12.865,50.531-25.6,75.731-38.595,26.393-13.528,52.919-27.189,79.179-40.982,3.714-1.989,5.305-1.061,7.029,2.122q26.061,46.155,52.256,92.177Z" transform="translate(17.796 170.144)" fill="#fff"/>
        <path id="Path_660" data-name="Path 660" d="M582.177,829.129c.531,1.724,1.061,3.448,1.459,5.172H566.262L423.952,581.247l-3.581,1.99a19.833,19.833,0,0,0-3.846,1.592c-13.263,6.764-26.393,13.661-39.656,20.425l-75.2,38.595c-23.077,11.8-46.022,23.74-69.1,35.677-10.08,5.172-20.292,10.345-30.372,15.65a15.4,15.4,0,0,0-2.918,1.724h0L1,794.381v-10.61c12.6-6.366,25.332-12.865,37.932-19.231Q96.426,735.1,153.788,705.652c30.77-15.783,61.672-31.7,92.442-47.481,29.178-14.854,58.356-29.576,87.535-44.431,30.372-15.65,60.611-31.433,90.85-47.083,2.918-1.592,5.57-1.724,7.295,2.122,1.459,3.183,3.581,5.968,5.305,9.019,11.671,21.088,23.077,42.308,35.014,63.264q29.245,51.725,59.02,103.185c4.775,8.356,9.549,16.578,14.456,24.8,3.846,6.631,7.692,13.263,11.539,20.027,3.183,5.57,6.234,11.273,9.284,16.976l.133.133c3.05,5.57,6.1,11.273,9.284,16.711a11.456,11.456,0,0,0,.928,1.326C578.2,826.079,580.32,827.538,582.177,829.129Z" transform="translate(-0.867 148.739)" fill="#fff"/>
        <path id="Path_661" data-name="Path 661" d="M620.772,847.579c1.326,2.387,2.52,4.775,3.846,7.029H614.406L423.952,515.875l-24.4,13.793.133.133c-10.61,5.438-21.088,10.876-31.7,16.181L276.071,593.33c-18.833,9.682-37.8,19.5-56.5,29.311L1,735.508V721.98c3.846-1.989,7.825-3.979,11.671-6.1,26-13.528,51.858-27.056,77.853-40.452q40.385-20.889,80.638-41.513c24.8-12.732,49.47-25.6,74.272-38.33,31.168-16.048,62.335-31.831,93.5-47.879,27.719-14.324,55.173-28.913,82.893-43.37,2.785-1.459,5.305-1.592,6.9,1.989a78.693,78.693,0,0,0,3.846,7.427l28.648,50.134.4.8c3.183,5.7,6.5,11.273,9.682,16.976,8.223,14.456,16.313,29.046,24.4,43.5,4.775,8.488,9.549,16.976,14.191,25.465,12.732,22.812,25.6,45.757,38.462,68.569,1.857,3.316,3.846,6.5,5.836,9.947l10.212,18.037h0v.133c.133.265.133.4.265.663.133.133.133.4.265.531a6.465,6.465,0,0,1,.4.928c.133.265.265.4.4.663s.4.531.531.8c.133.133.265.265.265.4h0l8.356,14.854a12.127,12.127,0,0,0,.928,1.857c11.406,20.425,23.077,40.849,34.616,61.274C614.008,835.509,617.456,841.478,620.772,847.579Z" transform="translate(-0.867 128.433)" fill="#fff"/>
        <path id="Path_662" data-name="Path 662" d="M587.482,737.425,645.308,840.08c-1.592,2.785-3.05,5.438-4.642,8.223L421.432,458.508,398.752,471.24l.4.663c-11.406,5.836-22.812,11.671-34.085,17.64-28.382,14.722-57.163,29.046-85.147,44.563-18.568,10.345-38.462,18.037-56.5,29.178h0L1,678.141V665.276a12.447,12.447,0,0,0,1.989-.8c25.2-13.13,50.266-26.26,75.466-39.258,31.963-16.579,64.059-33.024,96.023-49.6,14.854-7.692,29.709-15.65,44.7-23.343,25.067-13,50-25.863,75.068-38.727,20.69-10.61,41.513-21.221,62.07-31.963q30.239-15.716,60.346-31.831c2.653-1.459,4.377-2.255,5.836-2.255h.663a.487.487,0,0,1,.4.133,3.008,3.008,0,0,1,1.459.928l.265.265h0l91.646,163,.4.8.265.531L527.4,630.66l5.305,9.417h0L554.988,679.6l27.587,49.072.133.133Z" transform="translate(-0.867 110.202)" fill="#fff"/>
        <path id="Path_663" data-name="Path 663" d="M644.38,794.724l17.9,31.7c-2.387,4.111-4.775,8.223-7.029,12.467L415.464,412.754l-14.854,8.356.133.265c-11.406,6.1-22.945,12.069-34.351,18.037-43.635,22.812-87.269,45.492-130.772,68.436l-.265-.663L1,628.275v-12.2c9.151-4.642,18.435-9.284,27.719-14.058,24.669-12.865,49.47-25.6,74.007-38.595,25.6-13.528,50.929-27.321,76.527-40.717,16.976-9.019,34.351-17.507,51.46-26.26q42.972-22.083,85.943-44.3,34.019-17.706,68.038-35.279C396.63,410.632,408.7,404.4,421.3,397.9L540.134,609.177l.133.133,7.825,13.926.133.265,51.725,91.911.133.265c4.377,8.09,8.753,16.181,13.263,24.271a.463.463,0,0,0,.265-.133l27.321,48.542h-.265c.8,1.724,1.857,3.979,3.316,6.764C643.982,794.989,644.247,794.857,644.38,794.724Z" transform="translate(-0.867 94.018)" fill="#fff"/>
        <path id="Path_664" data-name="Path 664" d="M677.4,815.081c-1.857,3.05-3.714,6.1-5.438,9.151l-257.3-457.3-2.918,1.724h0a9.4,9.4,0,0,0-2.122.928c-23.343,12.334-46.818,24.536-70.16,36.871q-51.725,27.255-103.45,54.775c-.8.4-1.857.928-2.785,1.459l-.265.133L1,582.584V571.576c1.724-.8,3.581-1.326,5.305-2.255Q34.157,554.8,62.142,540.01c28.382-14.854,56.632-29.709,85.015-44.563q27.454-14.523,55.173-28.913l.265-.133,30.9-15.385-.265-.53c13.926-7.162,27.719-14.324,41.645-21.618,24.669-12.865,49.205-25.73,73.874-38.728,22.016-11.539,43.9-23.077,65.784-35.014a13.384,13.384,0,0,1,1.989-.928c.133,0,.265-.133.4-.133s.265-.133.4-.133a.487.487,0,0,0,.4-.133h.4L664.8,792.269c-.133,0-.133,0-.265.133a2.893,2.893,0,0,1,.531.663l.133.133h0Z" transform="translate(-0.867 79.629)" fill="#fff"/>
      </g>
      <g id="Group_59" data-name="Group 59" transform="translate(0 3.714)">
        <path id="Path_665" data-name="Path 665" d="M683.567,712.936l8.09,14.722a30.336,30.336,0,0,0-2.387,3.846l-9.151-16.579h0l-31.831-57.561-2.387-4.244-24.271-43.9h0l-1.989-3.581h0l-23.077-41.645h0l-1.592-2.785h0l-21.618-39.125h0l-1.592-2.918h0L301.2,29.9h4.642L478.391,341.842l.663-.4L684.1,712.538Z" transform="translate(98.277 -29.767)"/>
        <path id="Path_666" data-name="Path 666" d="M416.758,791.754H403.5l-38.595-68.7-16.579,9.284c-2.52,1.194-4.907,2.387-7.295,3.581q-38,19.1-75.731,38.33c-11.008,5.57-21.884,11.539-32.892,17.374H201.9c6.764-3.714,13.263-7.56,20.16-11.008,23.077-11.671,46.287-23.21,69.365-35.014,23.475-11.8,46.818-23.873,70.16-35.81,1.194-.663,2.387-1.989,3.581-1.989,1.857,0,4.775.4,5.438,1.592,13.528,23.343,26.791,46.685,40.054,70.16C412.779,783.663,414.636,787.775,416.758,791.754Z" transform="translate(65.877 191.42)"/>
        <path id="Path_667" data-name="Path 667" d="M380.529,432.867h0c-2.52-4.244-4.775-8.356-7.029-12.467Z" transform="translate(121.867 97.646)"/>
        <path id="Path_668" data-name="Path 668" d="M381.8,398.155c-.265,0-.4-.133-.4-.265-3.979-6.764-7.692-13.793-11.406-20.69Z" transform="translate(120.725 83.551)"/>
        <path id="Path_669" data-name="Path 669" d="M465.128,664.538a.463.463,0,0,0-.265.133c-4.377-8.09-8.886-16.181-13.263-24.271Z" transform="translate(147.349 169.428)"/>
        <path id="Path_670" data-name="Path 670" d="M427.022,694.311c-.133-.133-.265-.265-.265-.4a2.775,2.775,0,0,1-.531-.8c-.133-.265-.265-.4-.4-.663a6.463,6.463,0,0,1-.4-.928c-.133-.133-.133-.4-.265-.531-.133-.265-.133-.4-.265-.663V690.2Z" transform="translate(138.638 185.677)"/>
        <path id="Path_671" data-name="Path 671" d="M182.9,430.163,152,445.548c3.581-1.857,7.295-3.846,10.876-5.7,6.631-3.448,13.263-6.9,19.762-10.345Z" transform="translate(49.595 100.615)"/>
        <path id="Path_672" data-name="Path 672" d="M111.806,157.488,0,217.039v-7.295l16.976-9.019a22.86,22.86,0,0,0,5.04-2.255C36.075,190.778,50,183.218,64.059,175.526c12.865-7.029,25.73-14.059,38.727-20.955.8-.4,1.459-.8,2.255-1.194L220.428,90.909c23.74-12.865,47.348-25.6,71.089-38.595,13.528-7.427,26.924-14.987,40.319-22.414H345.5c-6.1,3.448-12.069,7.029-18.17,10.478Q272.419,70.219,217.51,99.928c-30.77,16.711-61.407,33.688-92.177,50.4-4.509,2.52-9.019,4.907-13.528,7.295Z" transform="translate(0 -29.767)"/>
        <path id="Path_673" data-name="Path 673" d="M77.322,201.686,0,241.607v-6.5l15.12-8.09h0a16.177,16.177,0,0,0,2.255-.928c-.133,0-.133-.133-.265-.133l8.621-4.642a13.838,13.838,0,0,0,3.316-1.061q25.863-13.926,51.725-28.117c4.775-2.653,9.549-5.173,14.324-7.825l.265-.133c7.958-4.377,15.915-8.753,23.74-13Q145.759,156.46,172.549,142c31.433-16.976,62.866-33.82,94.3-50.8l54.908-29.841c19.231-10.478,38.33-21.088,57.428-31.566h14.722c-8.886,4.907-17.772,9.814-26.658,14.589q-59.285,32.03-118.7,64.192-54.51,29.443-108.888,59.152c-20.69,11.273-41.38,22.414-62.07,33.688Z" transform="translate(0 -29.8)"/>
        <path id="Path_674" data-name="Path 674" d="M757.838,706.226l18.17,32.892c0,2.387-1.194,4.642-3.979,7.958l-11.539-20.823h-.133L613.008,459.537l-213-385.153-6.631,3.581.265.4c-.53.265-.928.531-1.459.8q-36.208,19.3-72.15,38.727-46.553,25.067-92.84,50.133c-29.046,15.783-58.224,31.566-87.269,47.216-26.393,14.191-52.786,28.25-79.179,42.441l-1.459.8L0,289.11v-8.356l33.157-17.109h.265c1.459-.8,2.918-1.459,4.509-2.387l.133-.133,12.467-6.5h0a19.467,19.467,0,0,0,1.857-.8c7.56-3.979,15.252-7.825,22.812-11.937,38.595-20.955,77.19-42.043,115.917-62.866,21.884-11.8,43.9-23.475,65.784-35.279q40.783-21.884,81.3-44.033C358.229,88.841,378.256,78.1,398.15,67.09c2.785-1.592,4.775-1.592,6.366.133h0l11.539,20.955.133.133c4.775,8.753,9.549,17.64,14.324,26.393,18.7,34.085,37.534,68.171,56.234,102.256,25.2,46.155,50.266,92.309,75.6,138.331,3.714,6.9,7.825,13.661,11.937,20.292.265.531.8.8,1.459,1.194h0l5.836,10.478h0a1.2,1.2,0,0,0-.133.663l10.743,19.5a4.411,4.411,0,0,0,.8.4l7.427,13.528h0a16.788,16.788,0,0,0,.8,2.387c2.122,5.968,6.5,14.059,9.947,18.17l6.234,11.273a1.122,1.122,0,0,0,0,.928c1.459,2.785,3.05,5.57,4.642,8.223.133,0,.265-.133.4-.133l5.305,9.549,3.183,5.7a4.03,4.03,0,0,0,.928.663l8.356,15.12h0c1.061,2.255,2.122,4.377,3.316,6.631.8,1.459,1.724,2.785,2.52,4.244v.133l4.377,7.958a4.512,4.512,0,0,1,.133,1.326h0l3.05,5.438c.133-.133.265-.133.531-.265l7.162,13,.133.133c3.581,6.631,7.029,13.4,11.008,19.762l.133.133,1.326,2.52.133.265a5.557,5.557,0,0,1,.531,1.989l2.52,4.642c.133-.133.265-.133.53-.265l5.57,10.212a.463.463,0,0,1-.265.133l5.968,10.345h0l5.7,10.345h0l2.387,4.775c.4.8.663,1.459.928,2.122h0l4.244,7.56c.133-.133.4-.133.531-.265l23.077,41.778a4.975,4.975,0,0,1,.133,1.326l2.918,5.305c.133-.133.4-.133.531-.265l26.128,47.348c-.133.133-.4.133-.531.265l2.387,4.377C757.44,706.358,757.573,706.358,757.838,706.226Z" transform="translate(0 -18.017)"/>
        <path id="Path_675" data-name="Path 675" d="M723.487,766.812l5.305,9.417c-1.592,2.785-3.183,5.438-4.775,8.223L708.9,757.528c.133,0,.133-.133.265-.133l-2.122-3.714h-.4L492.051,372.111h0L405.71,218.527c-.133,0-.265-.133-.4-.133h-.8a.487.487,0,0,0-.4.133c-.133,0-.4.133-.531.133a4.712,4.712,0,0,0-1.194.53c-.133.133-.4.133-.531.265s-.4.133-.53.265a2.9,2.9,0,0,1-.663.4c-.265.133-.4.265-.663.4-1.326.8-2.785,1.459-4.111,2.255-14.722,7.825-29.444,15.65-44.033,23.475Q307.3,269.92,262.737,293.329c-24.271,12.865-48.542,25.6-72.813,38.595-15.783,8.356-31.433,16.844-47.216,25.332a5.769,5.769,0,0,0-.928.531h0L0,431v-8.621a60.365,60.365,0,0,0,6.764-2.785l56.9-30.239c3.846-1.989,7.692-4.111,11.406-6.1l.133-.133c22.149-11.8,44.43-23.74,66.579-35.544,4.111-2.122,8.09-4.377,12.2-6.5,31.831-16.844,63.529-33.82,95.36-50.664,27.587-14.589,55.041-29.178,82.627-43.767q36.208-19.1,72.282-38.462c2.785-1.459,4.509-2.255,5.836-1.857L577.6,506.065c.4.8.8,1.592,1.194,2.255.133.265.265.4.4.663l9.417,16.844c.4.663.663,1.326,1.061,1.857l13.13,23.475h0l15.915,28.382L723.355,766.547Z" transform="translate(0 27.764)"/>
        <path id="Path_676" data-name="Path 676" d="M757.971,752.886l.531.928h0c-.531,1.724-1.989,3.05-3.714,4.244-.265.133-.4.265-.663.4l-1.459-2.52h0l-2.785-5.173-24.8-44.3c.133,0,.133-.133.265-.133l-1.989-3.581c-.133,0-.133.133-.265.133h0L696.3,654.873c.133-.133.265-.133.4-.265l-1.857-3.448a.8.8,0,0,1-.531.133l-25.067-44.961c.265-.133.4-.265.663-.4l-1.326-2.52c-.265.133-.531.133-.8.265l-169.5-303.188-7.295-13.13c-7.958-14.324-16.048-28.78-24.006-43.1-14.059-25.465-27.985-50.929-42.043-76.394-4.642-8.223-9.549-16.313-14.324-24.536l-.265-.531L401.2,126.35l-6.5,3.714v.133c-11.273,5.968-22.547,11.937-33.688,18.037q-38.993,20.889-77.72,41.645c-17.109,9.151-34.483,18.037-51.46,27.189s-33.688,18.568-50.664,27.719q-46.354,24.868-92.707,49.47a9.559,9.559,0,0,0-2.52,1.857L0,340.412V329.934l65.916-34.085a2.944,2.944,0,0,0,1.194-.133,4.9,4.9,0,0,0,1.459-.663c.265-.133.4-.133.663-.265a6.462,6.462,0,0,1,.928-.4,6.466,6.466,0,0,1,.928-.4c.133,0,.265-.133.4-.133a12.324,12.324,0,0,1,1.326-.663h.133a9.89,9.89,0,0,0,1.592-.928h0v-.133c5.7-3.05,11.406-5.968,17.109-9.019s11.406-5.968,17.109-9.019c27.321-14.589,54.643-29.443,81.964-44.033q36.009-19.3,72.282-38.595,29.642-15.915,59.285-31.7c26.128-14.059,52.123-27.985,78.118-42.176,2.785-1.459,4.642-1.592,6.234-.4a9.6,9.6,0,0,1,2.122,2.785c6.631,12.334,13.13,24.669,19.762,36.871l.265.531c2.785,5.172,5.7,10.478,8.621,15.65,7.427,13.4,14.854,26.791,22.282,40.054l1.326,2.52,63.4,114.724.8,1.459c6.234,11.406,12.467,22.945,18.833,34.351a31.73,31.73,0,0,0,1.724,2.785h0l89.391,161.807.663-.4L758.634,752.488Z" transform="translate(0 -1.546)"/>
        <path id="Path_677" data-name="Path 677" d="M698.951,750.193l18.966,33.555c-1.857,3.316-3.846,6.5-5.7,9.815L408.363,253.5,299.74,310.928h0l-51.327,27.056c-21.884,11.671-43.9,23.21-65.784,35.014-2.785,1.459-5.438,2.918-8.223,4.377l-.265-.53L0,466.766V458.41c20.292-10.61,40.452-21.221,60.744-31.963,22.016-11.671,44.033-23.608,66.182-35.279,20.159-10.61,40.319-20.955,60.479-31.566,24.4-12.865,48.675-26.128,73.211-38.993,27.852-14.722,55.837-29.178,83.556-44.033,21.486-11.406,42.839-23.21,64.192-34.749.265-.133.4-.265.663-.265a.13.13,0,0,0,.133-.133c.133,0,.265-.133.4-.133.265-.133.531-.133.8-.265.133,0,.4-.133.531-.133h1.326a.487.487,0,0,1,.4.133.463.463,0,0,1,.265.133c.133,0,.265.133.4.133.133.133.265.133.4.265s.265.133.4.265l.4.4a1.83,1.83,0,0,1,.4.531,5.378,5.378,0,0,1,.663,1.194c1.194,2.653,2.653,5.305,4.111,7.958,11.273,20.425,22.547,40.717,33.82,61.142l.8,1.459,29.841,52.919h0l33.82,59.948.265.531.133.265,2.52,4.509,4.907,8.621h0c5.438,9.947,10.61,19.5,16.181,29.443.133-.133.265-.133.4-.265l4.509,7.958,17.109,30.372,5.305,9.417h0l17.374,30.9h0l7.162,12.865h0l13.13,23.21h0a12.019,12.019,0,0,1,1.459,2.122h0a.487.487,0,0,0,.133.4h.133a11.671,11.671,0,0,1,.663,1.989h0l2.785,4.907,6.631,11.937h0l20.557,36.605,7.56,13.4,6.234,11.008h0l13.13,23.21,1.724,3.05,28.25,50.133h-.133C696.431,748.071,697.36,749.795,698.951,750.193Z" transform="translate(0 39.078)"/>
        <path id="Path_678" data-name="Path 678" d="M733.7,755.516l6.5,11.671c-1.724,3.05-3.581,6.1-5.305,9.151l-9.284-16.711a.411.411,0,0,0,.265-.133l-2.122-3.846c-.133,0-.133,0-.265.133l-29.178-52.388c.133-.133.265-.133.4-.265l-2.255-4.111c-.133.133-.4.133-.531.265L509.16,372.221A19.91,19.91,0,0,0,507.7,369.3c-13.4-23.873-26.791-47.614-40.054-71.487-16.048-28.913-31.963-57.959-48.011-86.872-2.255-3.979-4.775-7.825-7.295-11.8-1.989-3.183-3.979-6.366-5.7-9.549-1.194-2.255-2.122-3.183-3.581-3.05a7.155,7.155,0,0,0-2.387.8c-23.74,12.6-47.614,25.332-71.354,37.932-20.16,10.61-40.186,21.353-60.346,31.963-15.65,8.223-31.433,16.313-46.95,24.536q-37,19.7-74.139,39.656c-3.714,1.989-7.427,3.979-11.008,5.968l-.265.133L0,398.348v-8.886l20.425-10.61a9,9,0,0,0,3.316-1.194c2.653-1.459,5.305-3.05,7.958-4.642l.265-.133c1.857-1.061,3.581-2.122,5.438-3.05,22.282-11.671,44.563-23.21,66.845-35.014,11.671-6.1,23.21-12.334,34.749-18.568,8.621-4.642,17.242-9.284,25.863-13.793,27.852-14.854,55.571-29.709,83.423-44.43,25.73-13.661,51.327-27.189,77.057-40.85,25.863-13.661,51.592-27.454,77.455-41.247,3.05-1.592,4.775-2.255,6.234-1.326,1.061.531,1.857,1.724,2.918,3.714,15.915,28.78,31.831,57.693,47.746,86.474,9.284,16.844,18.7,33.82,27.985,50.664l.4.663c5.438,9.814,11.008,19.762,16.446,29.576,2.122,3.714,4.244,7.427,6.366,11.273l.265.4,7.295,13.13,32.627,58.356,1.724,3.183,7.295,13h0c4.377,7.958,8.621,15.915,13,23.74a43.872,43.872,0,0,0,2.387,3.846h0l6.631,11.937.265.531c4.907,9.284,9.815,18.3,14.854,27.719.133-.133.4-.133.531-.265l5.305,9.549v.133c5.173,9.815,10.212,19.231,15.12,28.648.8,1.459,1.592,2.785,2.653,3.183h0l21.618,38.727c-.265.133-.4.4-.663.663,1.459,1.989,2.918,3.979,4.244,5.968h0l5.836,10.61c-.133,0-.4-.133-.531-.133,2.387,4.642,4.509,8.886,6.9,13.793.133-.663.133-1.194.265-1.857l11.671,20.823v.265l.53,1.061c.133,0,.133.133.265.133l15.385,27.454.4.8,13,23.21c-.133,0-.265.133-.4.265l2.255,3.979c.133,0,.265-.133.4-.133l16.844,30.107.133.265c3.05,5.836,6.234,11.8,9.549,17.507a5.288,5.288,0,0,1,.928,2.653l3.316,6.1C733.3,755.649,733.435,755.649,733.7,755.516Z" transform="translate(0 17.309)"/>
        <path id="Path_679" data-name="Path 679" d="M782.772,734.457c-.663,1.857-1.326,3.581-1.989,5.305l-12.6-22.679-.133.133L563.007,345.988h0l-163-294.833-6.631,3.581v.133c-18.7,10.08-36.473,19.5-54.245,29.178q-49.537,26.658-98.808,53.449c-25.332,13.793-50.664,27.719-76,41.513Q120.758,202.683,77.19,226.49c-8.753,4.775-17.64,9.682-26.393,14.456l-.4.265L0,267.074v-8.356l17.772-9.151c.133.133.133.265.265.4,3.05-1.724,5.7-3.316,8.356-4.907h.133l8.753-4.509c0,.133.133.265.133.4,5.305-2.918,10.61-5.7,15.915-8.621l.531-.265c14.854-8.09,29.841-16.181,44.7-24.271Q248.347,125.626,400.67,43.331a7.874,7.874,0,0,0,1.061-.531c1.326,2.122,2.653,3.846,3.581,5.57,12.069,22.149,24.006,44.3,36.208,66.447,15.385,28.117,31.168,55.969,46.553,84.086,13.926,25.332,27.321,50.929,41.115,76.261,7.692,14.191,15.385,28.25,23.077,42.441l2.255,4.111c4.111,7.427,8.09,14.854,12.2,22.282l.265-.133L772.029,714.96h0Z" transform="translate(0 -25.558)"/>
        <path id="Path_680" data-name="Path 680" d="M766.857,745.356c.531,3.183-.663,5.438-4.111,9.151l-25.332-45.889c.133-.133.4-.133.531-.265l-2.52-4.509c-.265,0-.4.133-.663.133l-26-46.95c.133-.133.4-.133.531-.265l-2.122-3.846a5.744,5.744,0,0,0-.663.133l-24.536-44.3c.133-.133.4-.133.531-.265l-1.592-2.918c-.265.133-.4.133-.663.265h0l-23.343-42.308c.265-.133.4-.265.663-.265l-1.326-2.52a5.742,5.742,0,0,0-.663.133h0L526.4,327.311l-.133-.265-32.627-60.479c-7.825-14.456-16.181-28.648-24.138-43.1-22.149-39.656-44.165-79.179-66.049-118.968a9.3,9.3,0,0,0-.8-1.194h0c-1.989-2.918-3.714-2.785-6.9-.928-.53.265-1.061.663-1.724.928-16.976,9.284-33.953,18.435-50.929,27.587L232.9,189.776c-24.669,13.263-49.338,26.393-74.007,39.656-24.4,13.13-48.675,26.128-73.078,39.391v-.133L0,312.722V304.9l47.746-24.669h0c.133,0,.133-.133.265-.133h0l30.637-15.783-.265-.4q59.683-32.03,119.5-64.192c23.077-12.467,46.155-25.067,69.232-37.534,31.831-17.109,63.662-33.953,95.36-50.929,12.069-6.5,24.006-13,36.075-19.5,2.387-1.326,4.377-2.122,6.234-.8a6.969,6.969,0,0,1,2.122,2.785c4.377,8.886,9.549,17.507,14.324,26.26q32.428,58.887,64.988,117.774c6.366,11.539,12.732,23.21,19.1,34.881l.928,1.724c13.4,24.271,26.658,48.675,40.054,72.946,3.581,6.366,7.162,12.732,10.876,19.1l.133.265,50.4,91.248.265.4c2.918,5.7,5.968,11.406,9.151,16.976a2.33,2.33,0,0,0,.531.663l44.033,79.71h0a.994.994,0,0,1-.133.663l1.989,3.581c.133,0,.265-.133.4-.133l22.812,41.115-.4.4,2.255,3.979c.133-.133.265-.133.4-.265l23.74,42.839h0a.994.994,0,0,1-.133.663l2.653,4.907c.133-.133.265-.133.4-.265l26.128,47.083c-.133.133-.265.133-.4.265l2.52,4.509h0c.133-.133.265-.133.4-.265l22.547,40.584Z" transform="translate(0 -10.064)"/>
        <path id="Path_681" data-name="Path 681" d="M749.748,757.014l.8,1.459c-.663,1.459-1.061,2.52-1.592,3.448-.928,1.592-1.857,3.05-2.653,4.642l-2.785-5.04-1.061.663L612.875,527.7,403.588,153.157l-9.151,5.04.265.531-9.151,4.775c-26,13.793-51.858,27.719-77.853,41.513-29.576,15.783-59.285,31.433-88.861,47.216-22.282,11.8-44.3,23.873-66.579,35.81-15.65,8.356-31.3,16.579-46.818,24.8-.4.265-.8.4-1.194.663h-.133L0,367.617v-8.488l61.937-32.1.928-.531c18.037-9.549,36.208-19.1,54.245-28.78a6.2,6.2,0,0,1,1.326-.663q55.306-29.443,110.745-59.152c27.852-14.854,55.7-29.576,83.423-44.43,30.107-16.048,60.081-32.361,90.187-48.409,1.857-1.061,3.316-1.459,4.642-.663a5.2,5.2,0,0,1,2.122,2.52c5.7,11.008,11.671,21.884,17.772,32.759,3.846,6.9,7.692,13.793,11.406,20.69l.663,1.061q24.072,43.369,48.011,86.739c11.8,21.353,23.475,42.706,35.279,63.927,2.653,4.775,5.438,9.417,8.356,14.059l1.459-.8L663.274,601.971l14.854,26.924L689.4,649.319c.133,0,.133-.133.265-.133l6.366,11.406v.663l21.884,39.523c.133-.133.265-.133.531-.265l10.212,18.17.133.4c2.122,4.244,4.244,8.621,6.5,12.865.265.531.531.928.8,1.459l.133.133,13.13,23.741A1.907,1.907,0,0,0,749.748,757.014Z" transform="translate(0 7.456)"/>
        <path id="Path_682" data-name="Path 682" d="M680.914,748.422l24.934,44.3h0c-1.194,2.122-2.255,4.509-3.448,6.631-.265.4-.4.8-.663,1.194L412.474,286.08l-5.968,3.316-.4.265c-3.581,1.989-7.162,3.581-10.743,5.438l-78.383,41.38q-39.788,20.889-79.444,41.778c-12.467,6.631-24.8,13.528-37.269,20.16l-3.979,1.989-.4-.8L0,501.07v-7.692c1.857-1.061,3.581-2.255,5.438-3.316,24.934-13.13,49.736-26.26,74.67-39.391q62.866-33.223,125.864-66.182c40.452-21.221,80.9-42.308,121.355-63.662q40.982-21.486,81.566-43.5c.133-.133.265-.133.4-.265a.463.463,0,0,0,.265-.133c.133-.133.4-.133.531-.265.133,0,.265-.133.4-.133s.265-.133.4-.133c.265-.133.4-.133.663-.265a.487.487,0,0,0,.4-.133h1.592a.487.487,0,0,1,.4.133h.265c.133,0,.133,0,.265.133.133,0,.265.133.4.133s.265.133.4.265l.133.133.133.133.4.4.4.4h0a9.835,9.835,0,0,1,1.326,2.122c2.785,5.172,5.7,10.345,8.488,15.518l.133.265,41.645,74.139,3.714,6.631.265.4.265.4.133.265,11.141,19.762h0l7.162,12.6.265.531c3.714,6.9,7.295,13.926,11.406,20.69,0,.133.265.265.4.265L507.038,439l16.976,30.239,3.714,6.631,17.9,31.963,4.907,8.753h0l17.507,31.035,5.836,10.478,11.406,20.159h0v.133a10.126,10.126,0,0,1,1.061,1.459h0l.4.8.265.265h0c.133.53.4.928.53,1.459h0l5.968,10.61,5.57,9.815,21.353,37.932,26.526,47.216,2.255,3.979,28.648,50.929Z" transform="translate(0 50.531)"/>
        <path id="Path_683" data-name="Path 683" d="M491.577,404.358,487.2,396.4a41.3,41.3,0,0,1,4.244,7.427C491.444,404.092,491.577,404.225,491.577,404.358Z" transform="translate(158.965 89.815)" fill="red"/>
        <path id="Path_684" data-name="Path 684" d="M508.426,434.82,507.1,432.3c.265.4.4.663.663,1.061A7.717,7.717,0,0,0,508.426,434.82Z" transform="translate(165.458 101.529)" fill="red"/>
        <path id="Path_685" data-name="Path 685" d="M689.337,799.728a13.03,13.03,0,0,0-2.122-.663,7.292,7.292,0,0,0,1.194-.928l-29.046-51.592h0L642.519,716.57l-14.456-25.73-3.581-6.366-6.1-10.876h0l-12.6-22.414h0l-7.029-12.6h0l-21.088-37.4h0l-5.04-8.886-20.557-36.473-6.5-11.671h0v-.133l-4.244-7.427h0L533.9,523.331h0l-3.979-7.162h0l-6.5-11.671-6.5-11.539-.133-.265-14.059-25.067a.13.13,0,0,0-.133.133c-2.387-4.244-4.642-8.488-6.9-12.6l-.4-.8-.4-.663L417.051,315.237h0c-.133-.133-.265-.133-.4-.265-.133,0-.265-.133-.4-.133a.487.487,0,0,1-.4-.133,7.323,7.323,0,0,0-4.112,1.061q-54.311,28.847-108.623,57.561c-29.974,15.783-59.948,31.433-89.922,47.216-.4.265-.8.4-1.194.663-30.372,15.915-60.876,31.565-91.116,47.481-4.509,2.387-8.886,4.642-13.4,7.029l-.4.133q-34.417,18.1-68.834,36.473c-12.732,6.764-25.332,13.4-38.064,20.16v7.162l202.125-101.2h0a7.364,7.364,0,0,1,2.255-1.459c17.109-8.886,34.085-17.9,51.062-26.791q30.637-16.114,61.407-32.229,42.574-22.282,85.015-44.563a15.555,15.555,0,0,1,1.459-.663l.8-.4.8-.4c.928-.53,1.857-.928,2.653-1.326a1.885,1.885,0,0,1,.8-.265h0a4.1,4.1,0,0,1,1.061-.265h0l2.52-1.459L685.756,815.113a49.065,49.065,0,0,0,3.316-5.7c.265-.4.4-.8.663-1.194l.4-.4a1.83,1.83,0,0,1,.531-.4,1,1,0,0,1,.531-.265.411.411,0,0,0,.265-.133,1.683,1.683,0,0,1,.8-.133h.4a1,1,0,0,1,.531.133Zm-30.9-53.184h.8C658.965,746.677,658.7,746.544,658.434,746.544Z" transform="translate(0.065 63.152)"/>
        <path id="Path_686" data-name="Path 686" d="M514.9,813.807a8.762,8.762,0,0,1,.663,1.989H502.831l-93.37-165.918-6.366,3.581h0a3.97,3.97,0,0,0-1.061.531c-14.589,7.56-29.311,14.987-44.033,22.547L282.4,715.53q-30.239,15.517-60.479,31.3L80.94,815.8H57.2c6.5-3.581,13-7.295,19.629-10.875,13.13-7.029,26.128-14.191,39.391-20.955,24.8-12.6,49.736-24.934,74.537-37.534q31.234-15.716,62.2-31.7c25.2-12.865,50.531-25.6,75.731-38.595,26.393-13.528,52.919-27.189,79.179-40.982,3.714-1.989,5.305-1.061,7.029,2.122q26.061,46.155,52.256,92.177C482.937,757.573,498.985,785.69,514.9,813.807Z" transform="translate(18.663 167.377)"/>
        <path id="Path_687" data-name="Path 687" d="M581.177,832.029c.531,1.724,1.061,3.448,1.459,5.172H565.262L422.952,584.147l-3.581,1.989a19.841,19.841,0,0,0-3.846,1.592c-13.263,6.764-26.393,13.661-39.656,20.425l-75.2,38.595c-23.077,11.8-46.022,23.74-69.1,35.677-10.08,5.172-20.292,10.345-30.372,15.65a15.4,15.4,0,0,0-2.918,1.724h0L0,797.281v-10.61c12.6-6.366,25.332-12.865,37.932-19.231Q95.426,738,152.788,708.552c30.77-15.783,61.672-31.7,92.442-47.481,29.178-14.854,58.356-29.576,87.535-44.431,30.372-15.65,60.611-31.433,90.85-47.083,2.918-1.592,5.57-1.724,7.295,2.122,1.459,3.183,3.581,5.968,5.305,9.019,11.671,21.088,23.077,42.308,35.014,63.264q29.245,51.725,59.02,103.185c4.775,8.356,9.549,16.578,14.456,24.8,3.846,6.631,7.692,13.263,11.539,20.027,3.183,5.57,6.234,11.273,9.284,16.976l.133.133c3.05,5.57,6.1,11.273,9.284,16.711a11.456,11.456,0,0,0,.928,1.326C577.331,828.979,579.453,830.305,581.177,832.029Z" transform="translate(0 145.972)"/>
        <path id="Path_688" data-name="Path 688" d="M619.9,850.511c1.326,2.387,2.52,4.775,3.846,7.029H613.539L422.952,518.808l-24.4,13.661.133.133c-10.61,5.438-21.088,10.876-31.7,16.181L275.071,596.13c-18.833,9.682-37.8,19.5-56.5,29.311L0,738.44V724.78c3.846-1.989,7.825-3.979,11.671-6.1,26-13.528,51.858-27.056,77.853-40.452q40.385-20.889,80.638-41.513c24.8-12.732,49.47-25.6,74.272-38.33,31.168-16.048,62.335-31.831,93.5-47.879,27.719-14.324,55.173-28.913,82.893-43.37,2.785-1.459,5.305-1.592,6.9,1.989a78.692,78.692,0,0,0,3.846,7.427l28.648,50.133.4.8c3.183,5.7,6.5,11.273,9.682,16.976,8.223,14.456,16.313,29.046,24.4,43.5,4.775,8.488,9.549,16.976,14.191,25.465,12.732,22.812,25.6,45.757,38.462,68.569,1.857,3.316,3.846,6.5,5.836,9.947l10.212,18.037h0v.133c.133.265.133.4.265.663.133.133.133.4.265.531a6.463,6.463,0,0,1,.4.928c.133.265.265.4.4.663s.4.531.531.8c.133.133.265.265.265.4h0l8.356,14.854a12.121,12.121,0,0,0,.928,1.857c11.406,20.425,23.077,40.849,34.616,61.274C613.008,838.442,616.456,844.41,619.9,850.511Z" transform="translate(0 125.633)"/>
        <path id="Path_689" data-name="Path 689" d="M586.615,740.326,644.441,842.98c-1.592,2.785-3.05,5.438-4.642,8.223L420.432,461.408l-22.679,12.732.4.663c-11.406,5.836-22.812,11.671-34.086,17.64-28.382,14.722-57.163,29.046-85.147,44.563-18.568,10.345-38.462,18.037-56.5,29.178h0L0,681.041V668.176a12.446,12.446,0,0,0,1.989-.8c25.2-13.13,50.266-26.26,75.466-39.258,31.963-16.579,64.059-33.024,96.023-49.6,14.854-7.692,29.709-15.65,44.7-23.343,25.067-13,50-25.862,75.068-38.727,20.69-10.61,41.513-21.221,62.07-31.963q30.239-15.716,60.346-31.831c2.653-1.459,4.377-2.255,5.836-2.255h.663a.487.487,0,0,1,.4.133,3.008,3.008,0,0,1,1.459.928l.265.265h0l91.646,163,.4.8.265.531L526.4,633.56l5.305,9.417h0L553.988,682.5l27.587,49.073.133.133Z" transform="translate(0 107.435)"/>
        <path id="Path_690" data-name="Path 690" d="M643.38,797.624l17.9,31.7c-2.387,4.111-4.775,8.223-7.029,12.467L414.464,415.654l-14.854,8.356.133.265c-11.406,6.1-22.945,12.069-34.351,18.037-43.635,22.812-87.269,45.492-130.772,68.436l-.265-.663L0,631.175v-12.2c9.151-4.642,18.435-9.284,27.719-14.058,24.669-12.865,49.47-25.6,74.007-38.595,25.6-13.528,50.929-27.321,76.527-40.717,16.976-9.019,34.351-17.507,51.46-26.26q42.972-22.083,85.943-44.3,34.019-17.706,68.038-35.279C395.63,413.532,407.7,407.3,420.3,400.8L539.134,612.077l.133.133,7.825,13.926.133.265,51.725,91.911.133.265c4.377,8.09,8.753,16.181,13.263,24.271a.463.463,0,0,0,.265-.133l27.321,48.542h-.265c.8,1.724,1.857,3.979,3.316,6.764C642.982,797.889,643.247,797.756,643.38,797.624Z" transform="translate(0 91.251)"/>
        <path id="Path_691" data-name="Path 691" d="M676.4,818.014c-1.857,3.05-3.714,6.1-5.438,9.151l-257.3-457.3-2.918,1.724h0a9.4,9.4,0,0,0-2.122.928c-23.343,12.334-46.818,24.536-70.16,36.871q-51.725,27.255-103.45,54.775c-.8.4-1.857.928-2.785,1.459l-.265.133L0,585.516V574.376c1.724-.8,3.581-1.326,5.305-2.255Q33.157,557.6,61.142,542.81c28.382-14.854,56.632-29.709,85.015-44.563q27.454-14.523,55.173-28.913l.265-.133,30.9-15.385-.265-.531c13.926-7.162,27.719-14.324,41.645-21.618,24.669-12.865,49.205-25.73,73.874-38.727,22.016-11.539,43.9-23.077,65.784-35.014a13.389,13.389,0,0,1,1.989-.928c.133,0,.265-.133.4-.133s.265-.133.4-.133a.487.487,0,0,0,.4-.133h.4L663.8,795.069c-.133,0-.133,0-.265.133a2.888,2.888,0,0,1,.531.663l.133.133h0Z" transform="translate(0 76.829)"/>
      </g>
    </g>
    <path id="Path_692" data-name="Path 692" d="M84.275,262.021,79.5,253.4a55.206,55.206,0,0,1,4.642,8.09A.8.8,0,0,1,84.275,262.021Z" transform="translate(25.94 82.68)" fill="red"/>
    <path id="Path_693" data-name="Path 693" d="M102.559,295.153,101.1,292.5c.265.4.4.8.663,1.194A3.984,3.984,0,0,1,102.559,295.153Z" transform="translate(32.987 95.438)" fill="red"/>
    <rect id="Rectangle_159" data-name="Rectangle 159" width="35.942" height="6.234" transform="matrix(0.886, -0.464, 0.464, 0.886, 367.737, 41.887)" fill="#fff"/>
    <rect id="Rectangle_160" data-name="Rectangle 160" width="36.738" height="3.979" transform="matrix(0.5, 0.866, -0.866, 0.5, 399.386, 25.715)" fill="#fff"/>
    <rect id="Rectangle_161" data-name="Rectangle 161" width="35.942" height="7.162" transform="matrix(0.886, -0.464, 0.464, 0.886, 367.387, 46.139)"/>
    <rect id="Rectangle_162" data-name="Rectangle 162" width="76.659" height="6.234" transform="translate(330.805 37.311) rotate(-29.11)" fill="#fff"/>
    <rect id="Rectangle_163" data-name="Rectangle 163" width="78.383" height="6.631" transform="translate(330.571 40.833) rotate(-29.11)"/>
    <rect id="Rectangle_164" data-name="Rectangle 164" width="36.738" height="4.642" transform="matrix(0.5, 0.866, -0.866, 0.5, 399.323, 30.894)"/>
    <rect id="Rectangle_165" data-name="Rectangle 165" width="51.46" height="6.631" transform="matrix(0.5, 0.866, -0.866, 0.5, 400.129, 5.466)"/>
  </g>
</svg>
