<svg xmlns="http://www.w3.org/2000/svg" xmlns:xlink="http://www.w3.org/1999/xlink" width="268" height="106" viewBox="0 0 268 106">
  <defs>
    <clipPath id="clip-path">
      <rect width="268" height="106" fill="none"/>
    </clipPath>
  </defs>
  <g id="Repeat_Grid_1" data-name="Repeat Grid 1" opacity="0.48" clip-path="url(#clip-path)">
    <g transform="translate(-1609 -873)">
      <circle id="Ellipse_92" data-name="Ellipse 92" cx="5" cy="5" r="5" transform="translate(1609 873)" fill="#6d6e6e"/>
    </g>
    <g transform="translate(-1579 -873)">
      <circle id="Ellipse_92-2" data-name="Ellipse 92" cx="5" cy="5" r="5" transform="translate(1609 873)" fill="#6d6e6e"/>
    </g>
    <g transform="translate(-1549 -873)">
      <circle id="Ellipse_92-3" data-name="Ellipse 92" cx="5" cy="5" r="5" transform="translate(1609 873)" fill="#6d6e6e"/>
    </g>
    <g transform="translate(-1519 -873)">
      <circle id="Ellipse_92-4" data-name="Ellipse 92" cx="5" cy="5" r="5" transform="translate(1609 873)" fill="#6d6e6e"/>
    </g>
    <g transform="translate(-1489 -873)">
      <circle id="Ellipse_92-5" data-name="Ellipse 92" cx="5" cy="5" r="5" transform="translate(1609 873)" fill="#6d6e6e"/>
    </g>
    <g transform="translate(-1459 -873)">
      <circle id="Ellipse_92-6" data-name="Ellipse 92" cx="5" cy="5" r="5" transform="translate(1609 873)" fill="#6d6e6e"/>
    </g>
    <g transform="translate(-1429 -873)">
      <circle id="Ellipse_92-7" data-name="Ellipse 92" cx="5" cy="5" r="5" transform="translate(1609 873)" fill="#6d6e6e"/>
    </g>
    <g transform="translate(-1399 -873)">
      <circle id="Ellipse_92-8" data-name="Ellipse 92" cx="5" cy="5" r="5" transform="translate(1609 873)" fill="#6d6e6e"/>
    </g>
    <g transform="translate(-1369 -873)">
      <circle id="Ellipse_92-9" data-name="Ellipse 92" cx="5" cy="5" r="5" transform="translate(1609 873)" fill="#6d6e6e"/>
    </g>
    <g transform="translate(-1609 -843)">
      <circle id="Ellipse_92-10" data-name="Ellipse 92" cx="5" cy="5" r="5" transform="translate(1609 873)" fill="#6d6e6e"/>
    </g>
    <g transform="translate(-1579 -843)">
      <circle id="Ellipse_92-11" data-name="Ellipse 92" cx="5" cy="5" r="5" transform="translate(1609 873)" fill="#6d6e6e"/>
    </g>
    <g transform="translate(-1549 -843)">
      <circle id="Ellipse_92-12" data-name="Ellipse 92" cx="5" cy="5" r="5" transform="translate(1609 873)" fill="#6d6e6e"/>
    </g>
    <g transform="translate(-1519 -843)">
      <circle id="Ellipse_92-13" data-name="Ellipse 92" cx="5" cy="5" r="5" transform="translate(1609 873)" fill="#6d6e6e"/>
    </g>
    <g transform="translate(-1489 -843)">
      <circle id="Ellipse_92-14" data-name="Ellipse 92" cx="5" cy="5" r="5" transform="translate(1609 873)" fill="#6d6e6e"/>
    </g>
    <g transform="translate(-1459 -843)">
      <circle id="Ellipse_92-15" data-name="Ellipse 92" cx="5" cy="5" r="5" transform="translate(1609 873)" fill="#6d6e6e"/>
    </g>
    <g transform="translate(-1429 -843)">
      <circle id="Ellipse_92-16" data-name="Ellipse 92" cx="5" cy="5" r="5" transform="translate(1609 873)" fill="#6d6e6e"/>
    </g>
    <g transform="translate(-1399 -843)">
      <circle id="Ellipse_92-17" data-name="Ellipse 92" cx="5" cy="5" r="5" transform="translate(1609 873)" fill="#6d6e6e"/>
    </g>
    <g transform="translate(-1369 -843)">
      <circle id="Ellipse_92-18" data-name="Ellipse 92" cx="5" cy="5" r="5" transform="translate(1609 873)" fill="#6d6e6e"/>
    </g>
    <g transform="translate(-1609 -813)">
      <circle id="Ellipse_92-19" data-name="Ellipse 92" cx="5" cy="5" r="5" transform="translate(1609 873)" fill="#6d6e6e"/>
    </g>
    <g transform="translate(-1579 -813)">
      <circle id="Ellipse_92-20" data-name="Ellipse 92" cx="5" cy="5" r="5" transform="translate(1609 873)" fill="#6d6e6e"/>
    </g>
    <g transform="translate(-1549 -813)">
      <circle id="Ellipse_92-21" data-name="Ellipse 92" cx="5" cy="5" r="5" transform="translate(1609 873)" fill="#6d6e6e"/>
    </g>
    <g transform="translate(-1519 -813)">
      <circle id="Ellipse_92-22" data-name="Ellipse 92" cx="5" cy="5" r="5" transform="translate(1609 873)" fill="#6d6e6e"/>
    </g>
    <g transform="translate(-1489 -813)">
      <circle id="Ellipse_92-23" data-name="Ellipse 92" cx="5" cy="5" r="5" transform="translate(1609 873)" fill="#6d6e6e"/>
    </g>
    <g transform="translate(-1459 -813)">
      <circle id="Ellipse_92-24" data-name="Ellipse 92" cx="5" cy="5" r="5" transform="translate(1609 873)" fill="#6d6e6e"/>
    </g>
    <g transform="translate(-1429 -813)">
      <circle id="Ellipse_92-25" data-name="Ellipse 92" cx="5" cy="5" r="5" transform="translate(1609 873)" fill="#6d6e6e"/>
    </g>
    <g transform="translate(-1399 -813)">
      <circle id="Ellipse_92-26" data-name="Ellipse 92" cx="5" cy="5" r="5" transform="translate(1609 873)" fill="#6d6e6e"/>
    </g>
    <g transform="translate(-1369 -813)">
      <circle id="Ellipse_92-27" data-name="Ellipse 92" cx="5" cy="5" r="5" transform="translate(1609 873)" fill="#6d6e6e"/>
    </g>
    <g transform="translate(-1609 -783)">
      <circle id="Ellipse_92-28" data-name="Ellipse 92" cx="5" cy="5" r="5" transform="translate(1609 873)" fill="#6d6e6e"/>
    </g>
    <g transform="translate(-1579 -783)">
      <circle id="Ellipse_92-29" data-name="Ellipse 92" cx="5" cy="5" r="5" transform="translate(1609 873)" fill="#6d6e6e"/>
    </g>
    <g transform="translate(-1549 -783)">
      <circle id="Ellipse_92-30" data-name="Ellipse 92" cx="5" cy="5" r="5" transform="translate(1609 873)" fill="#6d6e6e"/>
    </g>
    <g transform="translate(-1519 -783)">
      <circle id="Ellipse_92-31" data-name="Ellipse 92" cx="5" cy="5" r="5" transform="translate(1609 873)" fill="#6d6e6e"/>
    </g>
    <g transform="translate(-1489 -783)">
      <circle id="Ellipse_92-32" data-name="Ellipse 92" cx="5" cy="5" r="5" transform="translate(1609 873)" fill="#6d6e6e"/>
    </g>
    <g transform="translate(-1459 -783)">
      <circle id="Ellipse_92-33" data-name="Ellipse 92" cx="5" cy="5" r="5" transform="translate(1609 873)" fill="#6d6e6e"/>
    </g>
    <g transform="translate(-1429 -783)">
      <circle id="Ellipse_92-34" data-name="Ellipse 92" cx="5" cy="5" r="5" transform="translate(1609 873)" fill="#6d6e6e"/>
    </g>
    <g transform="translate(-1399 -783)">
      <circle id="Ellipse_92-35" data-name="Ellipse 92" cx="5" cy="5" r="5" transform="translate(1609 873)" fill="#6d6e6e"/>
    </g>
    <g transform="translate(-1369 -783)">
      <circle id="Ellipse_92-36" data-name="Ellipse 92" cx="5" cy="5" r="5" transform="translate(1609 873)" fill="#6d6e6e"/>
    </g>
  </g>
</svg>
