<svg xmlns="http://www.w3.org/2000/svg" width="516.002" height="219.998" viewBox="0 0 516.002 219.998">
  <g id="Group_66" data-name="Group 66" transform="translate(-78.999 -5451.002)">
    <g id="Subtraction_1" data-name="Subtraction 1" transform="translate(78.999 5817) rotate(-90)" fill="#fff">
      <path d="M146,440V389.788a245.906,245.906,0,0,0,63.644-24.134,208.278,208.278,0,0,0,50.4-38.48,168.346,168.346,0,0,0,33.172-49.62,144.63,144.63,0,0,0,0-115.108,168.346,168.346,0,0,0-33.172-49.62,208.28,208.28,0,0,0-50.4-38.48A245.906,245.906,0,0,0,146,50.214V0a223.541,223.541,0,0,1,22.494,1.136A220.541,220.541,0,0,1,190.337,4.47c7.087,1.45,14.181,3.274,21.083,5.421,6.825,2.123,13.626,4.612,20.213,7.4,6.526,2.76,13,5.877,19.231,9.264,6.191,3.363,12.293,7.071,18.139,11.02,5.818,3.93,11.516,8.191,16.936,12.665s10.664,9.24,15.623,14.2,9.737,10.216,14.2,15.623S324.5,91.179,328.426,97c3.949,5.846,7.657,11.949,11.02,18.139,3.387,6.235,6.5,12.705,9.264,19.231,2.786,6.587,5.275,13.387,7.4,20.213,2.147,6.9,3.971,14,5.421,21.084a220.552,220.552,0,0,1,3.334,21.844,223.3,223.3,0,0,1,0,44.988,220.553,220.553,0,0,1-3.334,21.844c-1.45,7.088-3.274,14.181-5.421,21.084-2.123,6.825-4.612,13.626-7.4,20.213-2.76,6.526-5.877,13-9.264,19.231-3.363,6.19-7.07,12.293-11.02,18.139-3.93,5.818-8.191,11.516-12.665,16.936s-9.24,10.664-14.2,15.623-10.216,9.737-15.623,14.2S274.821,398.5,269,402.429c-5.845,3.949-11.948,7.657-18.139,11.02-6.235,3.387-12.705,6.5-19.231,9.264-6.587,2.786-13.387,5.275-20.213,7.4-6.9,2.147-14,3.971-21.083,5.421a220.538,220.538,0,0,1-21.844,3.334A223.519,223.519,0,0,1,146,440Z" stroke="none"/>
      <path d="M 145.9999237060547 440.0016174316406 L 145.9999237060547 389.7876586914062 C 168.6974182128906 384.5547485351562 190.1103363037109 376.4351806640625 209.6438751220703 365.6539306640625 C 228.8938751220703 355.0293273925781 245.8524169921875 342.0828857421875 260.0486755371094 327.1743469238281 C 274.3974304199219 312.1055908203125 285.5578308105469 295.4112243652344 293.2203369140625 277.5545349121094 C 301.1461791992188 259.0839233398438 305.1649169921875 239.7199554443359 305.1649169921875 220.0007934570312 C 305.1649169921875 200.2816314697266 301.1461791992188 180.9176635742188 293.2203369140625 162.4468383789062 C 285.5578308105469 144.5901641845703 274.3974304199219 127.8955841064453 260.0486755371094 112.8270416259766 C 245.8524169921875 97.91829681396484 228.8938751220703 84.97183227539062 209.6438751220703 74.34725189208984 C 190.1105499267578 63.56621170043945 168.6974182128906 55.44641876220703 145.9999237060547 50.2135009765625 L 145.9999237060547 -3.987630043411627e-05 C 153.5057525634766 -3.987630043411627e-05 161.0736694335938 0.3822517991065979 168.4934539794922 1.135793447494507 C 175.8078308105469 1.878710150718689 183.1572113037109 3.00037670135498 190.3374176025391 4.469751834869385 C 197.4247131347656 5.919960021972656 204.5182495117188 7.743918418884277 211.4207458496094 9.890793800354004 C 218.2459564208984 12.01371002197266 225.0463714599609 14.5026683807373 231.6332550048828 17.28870964050293 C 238.1592864990234 20.04912757873535 244.6295013427734 23.16600227355957 250.8642883300781 26.55287742614746 C 257.054931640625 29.91600227355957 263.1578369140625 33.62350082397461 269.0032653808594 37.57266998291016 C 274.8207397460938 41.50308609008789 280.5188903808594 45.76412582397461 285.9395141601562 50.23766708374023 C 291.3468017578125 54.70016860961914 296.6030578613281 59.47745895385742 301.5624084472656 64.43683624267578 C 306.5217895507812 69.39620971679688 311.299072265625 74.65267181396484 315.7613830566406 80.05995941162109 C 320.2347106933594 85.48058319091797 324.4957580566406 91.1787109375 328.4261779785156 96.99642181396484 C 332.3755493164062 102.8424606323242 336.0830383300781 108.9453735351562 339.4457397460938 115.1353759765625 C 342.8328247070312 121.3705825805664 345.9494934082031 127.8407897949219 348.709716796875 134.3666229248047 C 351.4957580566406 140.9535064697266 353.9847106933594 147.7541198730469 356.1076354980469 154.5793304443359 C 358.2544860839844 161.4818420410156 360.0784606933594 168.5753784179688 361.5286560058594 175.6630859375 C 362.998046875 182.8439178466797 364.1197204589844 190.1932983398438 364.8624267578125 197.5070495605469 C 365.6161804199219 204.9282989501953 365.9982604980469 212.4962158203125 365.9982604980469 220.0007934570312 C 365.9982604980469 227.50537109375 365.6161804199219 235.0732879638672 364.8624267578125 242.4945373535156 C 364.1197204589844 249.8082885742188 362.998046875 257.1576538085938 361.5286560058594 264.3385009765625 C 360.0784606933594 271.4262084960938 358.2544860839844 278.5197448730469 356.1076354980469 285.4222412109375 C 353.9847106933594 292.2474670410156 351.4957580566406 299.048095703125 348.709716796875 305.6349487304688 C 345.9494934082031 312.1607971191406 342.8328247070312 318.6310119628906 339.4457397460938 324.8662109375 C 336.0830383300781 331.0562133789062 332.3755493164062 337.1591186523438 328.4261779785156 343.0051574707031 C 324.4957580566406 348.8228759765625 320.2347106933594 354.52099609375 315.7613830566406 359.9416198730469 C 311.299072265625 365.3489074707031 306.5217895507812 370.6053771972656 301.5624084472656 375.5647583007812 C 296.6030578613281 380.5241394042969 291.3468017578125 385.3014221191406 285.9395141601562 389.763916015625 C 280.5188903808594 394.2374572753906 274.8207397460938 398.4985046386719 269.0032653808594 402.4289245605469 C 263.1578369140625 406.3780822753906 257.054931640625 410.0855712890625 250.8642883300781 413.4486999511719 C 244.6295013427734 416.8355712890625 238.1592864990234 419.9524536132812 231.6332550048828 422.712890625 C 225.0463714599609 425.4989318847656 218.2459564208984 427.9878845214844 211.4207458496094 430.1107788085938 C 204.5182495117188 432.2576599121094 197.4247131347656 434.0816345214844 190.3374176025391 435.5318298339844 C 183.1572113037109 437.001220703125 175.8078308105469 438.1228637695312 168.4934539794922 438.8657836914062 C 161.0720062255859 439.6195373535156 153.5040893554688 440.0016174316406 145.9999237060547 440.0016174316406 Z" stroke="none" fill="#a91e24"/>
    </g>
    <g id="Subtraction_2" data-name="Subtraction 2" transform="translate(325.999 5817) rotate(-90)" fill="#fff" opacity="0.36">
      <path d="M146,269V238.3a151.241,151.241,0,0,0,39.054-14.755,127.756,127.756,0,0,0,30.93-23.525,102.9,102.9,0,0,0,20.355-30.336,88.122,88.122,0,0,0,0-70.373,102.9,102.9,0,0,0-20.355-30.336,127.756,127.756,0,0,0-30.93-23.525A151.241,151.241,0,0,0,146,30.7V0a137.677,137.677,0,0,1,13.8.694c4.488.454,9,1.14,13.4,2.038,4.349.887,8.7,2,12.938,3.314,4.188,1.3,8.361,2.82,12.4,4.523,4,1.688,7.975,3.593,11.8,5.664,3.8,2.056,7.544,4.323,11.131,6.737,3.57,2.4,7.066,5.008,10.393,7.743s6.544,5.649,9.587,8.681,5.975,6.246,8.713,9.551,5.36,6.8,7.771,10.354c2.424,3.574,4.7,7.305,6.762,11.09,2.078,3.812,3.991,7.768,5.685,11.757,1.71,4.027,3.237,8.185,4.54,12.357,1.317,4.22,2.437,8.557,3.327,12.89a134.373,134.373,0,0,1,2.046,13.355,136.02,136.02,0,0,1,0,27.5,134.374,134.374,0,0,1-2.046,13.355c-.89,4.333-2.009,8.67-3.327,12.89-1.3,4.173-2.83,8.33-4.54,12.357-1.694,3.99-3.606,7.945-5.685,11.757-2.063,3.784-4.338,7.516-6.762,11.09-2.412,3.557-5.026,7.04-7.771,10.354s-5.67,6.519-8.713,9.551-6.269,5.953-9.587,8.681-6.823,5.34-10.393,7.743c-3.587,2.414-7.332,4.681-11.131,6.737-3.826,2.071-7.8,3.976-11.8,5.664-4.042,1.7-8.215,3.225-12.4,4.523-4.236,1.313-8.588,2.428-12.937,3.314-4.406.9-8.916,1.584-13.4,2.038A137.668,137.668,0,0,1,146,269Z" stroke="none"/>
      <path d="M 145.9998168945312 269.0015258789062 L 145.9998168945312 238.3026123046875 C 159.9278106689453 235.1033325195312 173.0674438476562 230.1393432617188 185.0540008544922 223.5480651855469 C 196.8663635253906 217.0524291992188 207.2727203369141 209.1375274658203 215.9839935302734 200.0229797363281 C 224.7889099121094 190.8104248046875 231.6372680664062 180.6040649414062 236.3392639160156 169.6871643066406 C 241.2028961181641 158.3947906494141 243.6688995361328 146.5564270019531 243.6688995361328 134.5007934570312 C 243.6688995361328 122.4451599121094 241.2028961181641 110.6066131591797 236.3392639160156 99.31424713134766 C 231.6372680664062 88.3973388671875 224.7889099121094 78.19097900390625 215.9839935302734 68.97843170166016 C 207.2727203369141 59.86388397216797 196.8663635253906 51.94879531860352 185.0540008544922 45.45333862304688 C 173.067626953125 38.86206436157227 159.9278106689453 33.89806747436523 145.9998168945312 30.69879341125488 L 145.9998168945312 6.618430052185431e-05 C 150.6058044433594 6.618430052185431e-05 155.2496337890625 0.2337025552988052 159.8027191162109 0.6944298148155212 C 164.2910919189453 1.148611664772034 168.8009033203125 1.834247946739197 173.2069091796875 2.732611656188965 C 177.5559997558594 3.619338989257812 181.9087219238281 4.734429836273193 186.1443634033203 6.046975135803223 C 190.3325347900391 7.344793319702148 194.5054473876953 8.866430282592773 198.5474548339844 10.5697021484375 C 202.5519866943359 12.25733852386475 206.5223541259766 14.16279315948486 210.3481750488281 16.2335205078125 C 214.1470794677734 18.28952026367188 217.8919982910156 20.55624771118164 221.4788970947266 22.97061157226562 C 225.0487213134766 25.37351989746094 228.5452728271484 27.97861099243164 231.8714447021484 30.71352005004883 C 235.1896362304688 33.44170379638672 238.4150848388672 36.36243057250977 241.4581756591797 39.39442825317383 C 244.5014495849609 42.42642974853516 247.4329071044922 45.64006805419922 250.1712646484375 48.94588470458984 C 252.9163513183594 52.25988388061523 255.5310821533203 55.7435188293457 257.9427185058594 59.30024719238281 C 260.3663635253906 62.87424850463867 262.6412658691406 66.60533905029297 264.7047119140625 70.38970184326172 C 266.7830810546875 74.20170593261719 268.69580078125 78.15734100341797 270.3894348144531 82.14715576171875 C 272.0990905761719 86.17406463623047 273.6263427734375 90.33170318603516 274.9290771484375 94.50443267822266 C 276.2465515136719 98.72442626953125 277.3656311035156 103.0611572265625 278.255615234375 107.3942489624023 C 279.1572570800781 111.7844314575195 279.8456420898438 116.2775192260742 280.30126953125 120.7487945556641 C 280.7638244628906 125.2858810424805 280.9983520507812 129.9127960205078 280.9983520507812 134.5007934570312 C 280.9983520507812 139.0887908935547 280.7638244628906 143.7155151367188 280.30126953125 148.2526092529297 C 279.8456420898438 152.7240600585938 279.1572570800781 157.2171630859375 278.255615234375 161.6073455810547 C 277.3656311035156 165.9404296875 276.2465515136719 170.2771606445312 274.9290771484375 174.4971618652344 C 273.6263427734375 178.6698913574219 272.0990905761719 182.8275146484375 270.3894348144531 186.8544311523438 C 268.69580078125 190.8442535400391 266.7830810546875 194.7998809814453 264.7047119140625 198.6118774414062 C 262.6412658691406 202.3962554931641 260.3663635253906 206.1273345947266 257.9427185058594 209.7013397216797 C 255.5310821533203 213.2580718994141 252.9163513183594 216.74169921875 250.1712646484375 220.0557098388672 C 247.4329071044922 223.3615264892578 244.5014495849609 226.5751495361328 241.4581756591797 229.6071624755859 C 238.4150848388672 232.63916015625 235.1896362304688 235.5598907470703 231.8714447021484 238.2880706787109 C 228.5452728271484 241.0229797363281 225.0487213134766 243.6280670166016 221.4788970947266 246.0309753417969 C 217.8919982910156 248.4453430175781 214.1470794677734 250.7120666503906 210.3481750488281 252.76806640625 C 206.5223541259766 254.8387908935547 202.5519866943359 256.7442626953125 198.5474548339844 258.431884765625 C 194.5054473876953 260.1351623535156 190.3325347900391 261.6567993164062 186.1443634033203 262.9546203613281 C 181.9087219238281 264.267333984375 177.5559997558594 265.3824157714844 173.2069091796875 266.2689819335938 C 168.8009033203125 267.1673278808594 164.2910919189453 267.8529663085938 159.8027191162109 268.3071594238281 C 155.2487182617188 268.7678833007812 150.6047210693359 269.0015258789062 145.9998168945312 269.0015258789062 Z" stroke="none" fill="#6d6e6e"/>
    </g>
  </g>
</svg>
