<svg xmlns="http://www.w3.org/2000/svg" width="226.127" height="158.407" viewBox="0 0 226.127 158.407">
  <g id="Logo" transform="translate(-839.887 -420.495)">
    <path id="Path_29" data-name="Path 29" d="M915.054,530.1V506.3c2.107,0,4.038,0,5.969,0,27.48-.024,54.961.023,82.44-.113,9.148-.046,18-1.855,25.058-8.135,9.794-8.713,11.226-20.072,8.361-32.038-2.819-11.777-11.967-17.117-22.869-19.682-4.953-1.165-10.169-1.206-15.863-1.821v58.268H969.6V421.635c13.732,0,27.173-.282,40.594.129a83.952,83.952,0,0,1,17.682,2.788c21.505,5.4,34.869,18.466,37.487,41.138,2.18,18.888-.677,36.258-15.948,49.49-9.613,8.329-21.23,12.227-33.592,13.879a143.649,143.649,0,0,1-18.407,1c-25.482.1-50.964.043-76.446.042Z" fill="#fff"/>
    <path id="Path_30" data-name="Path 30" d="M958.112,421.159v24.266c-12.756.911-25.235,1.125-37.5,2.85-15.547,2.186-29.909,7.617-40.96,19.663-19.646,21.413-14.607,59.034,10.2,74.08,12.656,7.674,26.682,10.965,41.414,11.371a11.949,11.949,0,0,0,2.27-.454V533.59h26.32v44.451c-8.034.3-15.974,1.034-23.889.823-21.122-.562-41.783-3.56-60.67-13.926-21.963-12.055-33.184-31.1-35.065-55.686-1.524-19.931,1.7-38.783,14.72-54.986,11.2-13.934,26.213-21.747,42.815-26.858,17.8-5.48,36.162-7.21,54.734-6.873C954.294,420.567,956.079,420.925,958.112,421.159Z" fill="#fff"/>
    <path id="Path_31" data-name="Path 31" d="M997.28,578.4c-1.491.129-2.78.332-4.07.337-7.46.031-14.919.015-22.675.015V533.707H997.28Z" fill="#fff"/>
    <path id="Path_32" data-name="Path 32" d="M957.884,497.679A65.521,65.521,0,0,0,950,496.086c-1.436-.125-2.952.718-4.436,1.108-5.369,1.41-10.767,1.676-14.791-2.749-3.989-4.386-4.617-9.839-2.431-15.364,2.071-5.237,6.467-7.329,11.771-7.674,3.128-.2,6.28-.037,9.372-.037.953-7.725-2.839-8.376-19.36-3.7-1.774-7.364-.822-8.989,6.034-10.265,1.465-.272,2.926-.626,4.4-.75,10.191-.851,18.772,4.041,18.247,15.557-.355,7.8-.12,15.634-.169,23.452A11.091,11.091,0,0,1,957.884,497.679Zm-8.322-18.657a75.412,75.412,0,0,0-8.818.07c-3.489.413-5.084,2.735-4.861,6.278s2.344,4.844,5.617,4.9C946.882,490.362,950.389,485.638,949.562,479.022Z" fill="#fff"/>
  </g>
</svg>
