<svg xmlns="http://www.w3.org/2000/svg" width="841.135" height="559.984" viewBox="0 0 841.135 559.984">
  <g id="Logo" transform="translate(-839.887 -420.495)">
    <path id="Path_29" data-name="Path 29" d="M915.054,805.305V721.166c7.837,0,15.02,0,22.2,0,102.219-.085,204.441.081,306.656-.4,34.028-.163,66.948-6.558,93.209-28.758,36.432-30.8,41.758-70.957,31.1-113.258-10.486-41.633-44.514-60.51-85.067-69.578-18.424-4.118-37.826-4.263-59.006-6.437V708.716H1117.967V421.874c51.08,0,101.077-1,151,.456,22.032.64,44.3,4.733,65.773,9.856,79.994,19.075,129.7,65.279,139.442,145.427,8.11,66.771-2.518,128.175-59.322,174.952-35.758,29.444-78.97,43.224-124.954,49.064-22.594,2.87-45.63,3.439-68.469,3.528-94.787.364-189.574.152-284.36.148Z" transform="translate(204.436 2.652)" fill="rgba(255,255,255,0.1)"/>
    <path id="Path_30" data-name="Path 30" d="M1279.655,422.843v85.783c-47.449,3.221-93.868,3.977-139.5,10.075-57.831,7.728-111.254,26.927-152.361,69.511-73.078,75.7-54.334,208.691,37.96,261.88,47.077,27.129,99.25,38.763,154.05,40.2,2.313.06,4.657-.855,8.443-1.605V820.3h97.9V977.437c-29.885,1.078-59.42,3.655-88.861,2.909-78.569-1.987-155.422-12.585-225.677-49.23C889.918,888.5,848.179,821.16,841.182,734.261c-5.668-70.458,6.331-137.1,54.755-194.381C937.58,490.622,993.443,463,1055.2,444.934c66.219-19.372,134.513-25.488,203.6-24.3C1265.453,420.75,1272.093,422.016,1279.655,422.843Z" transform="translate(0)" fill="rgba(255,255,255,0.1)"/>
    <path id="Path_31" data-name="Path 31" d="M1070.02,691.695c-5.546.456-10.341,1.174-15.14,1.191-27.749.109-55.495.053-84.345.053V533.707h99.485Z" transform="translate(355.33 287.004)" fill="rgba(255,255,255,0.1)"/>
    <path id="Path_32" data-name="Path 32" d="M1041.607,601.925c-9.92-2.019-19.528-4.826-29.319-5.631-5.341-.442-10.98,2.538-16.5,3.917-19.971,4.984-40.05,5.925-55.019-9.718-14.838-15.505-17.175-34.782-9.043-54.313,7.7-18.513,24.056-25.909,43.785-27.128,11.635-.721,23.36-.131,34.861-.131,3.546-27.309-10.56-29.61-72.014-13.091-6.6-26.032-3.058-31.777,22.445-36.288,5.449-.961,10.884-2.213,16.386-2.651,37.908-3.008,69.827,14.285,67.874,55-1.32,27.584-.447,55.268-.628,82.905C1044.427,595.863,1043.623,596.934,1041.607,601.925Zm-30.956-65.954c-10.844,0-21.957-.969-32.8.247-12.978,1.46-18.911,9.668-18.082,22.193.83,12.553,8.719,17.124,20.894,17.319C1000.682,576.059,1013.728,559.359,1010.651,535.971Z" transform="translate(237.2 91.423)" fill="rgba(255,255,255,0.1)"/>
  </g>
</svg>
