<svg xmlns="http://www.w3.org/2000/svg" width="27.886" height="27.886" viewBox="0 0 27.886 27.886">
  <path id="Icon_awesome-phone-alt" data-name="Icon awesome-phone-alt" d="M27.091,19.706l-6.1-2.614a1.307,1.307,0,0,0-1.525.376l-2.7,3.3a20.188,20.188,0,0,1-9.651-9.651l3.3-2.7a1.3,1.3,0,0,0,.376-1.525L8.175.79a1.316,1.316,0,0,0-1.5-.757L1.013,1.341A1.307,1.307,0,0,0,0,2.614,25.269,25.269,0,0,0,25.272,27.887a1.307,1.307,0,0,0,1.275-1.013l1.307-5.664a1.323,1.323,0,0,0-.763-1.5Z" transform="translate(0 0)" fill="#fff"/>
</svg>
