<svg xmlns="http://www.w3.org/2000/svg" xmlns:xlink="http://www.w3.org/1999/xlink" width="584" height="147" viewBox="0 0 584 147">
  <defs>
    <clipPath id="clip-path">
      <rect width="147" height="584" fill="none"/>
    </clipPath>
  </defs>
  <g id="Repeat_Grid_5" data-name="Repeat Grid 5" transform="translate(584) rotate(90)" opacity="0.29" clip-path="url(#clip-path)">
    <g transform="translate(-1368 -1357)">
      <g id="Ellipse_98" data-name="Ellipse 98" transform="translate(1368 1357)" fill="none" stroke="#0b4a9f" stroke-width="14">
        <circle cx="26" cy="26" r="26" stroke="none"/>
        <circle cx="26" cy="26" r="19" fill="none"/>
      </g>
    </g>
    <g transform="translate(-1285 -1357)">
      <g id="Ellipse_98-2" data-name="Ellipse 98" transform="translate(1368 1357)" fill="none" stroke="#0b4a9f" stroke-width="14">
        <circle cx="26" cy="26" r="26" stroke="none"/>
        <circle cx="26" cy="26" r="19" fill="none"/>
      </g>
    </g>
    <g transform="translate(-1368 -1271)">
      <g id="Ellipse_98-3" data-name="Ellipse 98" transform="translate(1368 1357)" fill="none" stroke="#0b4a9f" stroke-width="14">
        <circle cx="26" cy="26" r="26" stroke="none"/>
        <circle cx="26" cy="26" r="19" fill="none"/>
      </g>
    </g>
    <g transform="translate(-1285 -1271)">
      <g id="Ellipse_98-4" data-name="Ellipse 98" transform="translate(1368 1357)" fill="none" stroke="#0b4a9f" stroke-width="14">
        <circle cx="26" cy="26" r="26" stroke="none"/>
        <circle cx="26" cy="26" r="19" fill="none"/>
      </g>
    </g>
    <g transform="translate(-1368 -1185)">
      <g id="Ellipse_98-5" data-name="Ellipse 98" transform="translate(1368 1357)" fill="none" stroke="#0b4a9f" stroke-width="14">
        <circle cx="26" cy="26" r="26" stroke="none"/>
        <circle cx="26" cy="26" r="19" fill="none"/>
      </g>
    </g>
    <g transform="translate(-1285 -1185)">
      <g id="Ellipse_98-6" data-name="Ellipse 98" transform="translate(1368 1357)" fill="none" stroke="#0b4a9f" stroke-width="14">
        <circle cx="26" cy="26" r="26" stroke="none"/>
        <circle cx="26" cy="26" r="19" fill="none"/>
      </g>
    </g>
    <g transform="translate(-1368 -1099)">
      <g id="Ellipse_98-7" data-name="Ellipse 98" transform="translate(1368 1357)" fill="none" stroke="#0b4a9f" stroke-width="14">
        <circle cx="26" cy="26" r="26" stroke="none"/>
        <circle cx="26" cy="26" r="19" fill="none"/>
      </g>
    </g>
    <g transform="translate(-1285 -1099)">
      <g id="Ellipse_98-8" data-name="Ellipse 98" transform="translate(1368 1357)" fill="none" stroke="#0b4a9f" stroke-width="14">
        <circle cx="26" cy="26" r="26" stroke="none"/>
        <circle cx="26" cy="26" r="19" fill="none"/>
      </g>
    </g>
    <g transform="translate(-1368 -1013)">
      <g id="Ellipse_98-9" data-name="Ellipse 98" transform="translate(1368 1357)" fill="none" stroke="#0b4a9f" stroke-width="14">
        <circle cx="26" cy="26" r="26" stroke="none"/>
        <circle cx="26" cy="26" r="19" fill="none"/>
      </g>
    </g>
    <g transform="translate(-1285 -1013)">
      <g id="Ellipse_98-10" data-name="Ellipse 98" transform="translate(1368 1357)" fill="none" stroke="#0b4a9f" stroke-width="14">
        <circle cx="26" cy="26" r="26" stroke="none"/>
        <circle cx="26" cy="26" r="19" fill="none"/>
      </g>
    </g>
    <g transform="translate(-1368 -927)">
      <g id="Ellipse_98-11" data-name="Ellipse 98" transform="translate(1368 1357)" fill="none" stroke="#0b4a9f" stroke-width="14">
        <circle cx="26" cy="26" r="26" stroke="none"/>
        <circle cx="26" cy="26" r="19" fill="none"/>
      </g>
    </g>
    <g transform="translate(-1285 -927)">
      <g id="Ellipse_98-12" data-name="Ellipse 98" transform="translate(1368 1357)" fill="none" stroke="#0b4a9f" stroke-width="14">
        <circle cx="26" cy="26" r="26" stroke="none"/>
        <circle cx="26" cy="26" r="19" fill="none"/>
      </g>
    </g>
    <g transform="translate(-1368 -841)">
      <g id="Ellipse_98-13" data-name="Ellipse 98" transform="translate(1368 1357)" fill="none" stroke="#0b4a9f" stroke-width="14">
        <circle cx="26" cy="26" r="26" stroke="none"/>
        <circle cx="26" cy="26" r="19" fill="none"/>
      </g>
    </g>
    <g transform="translate(-1285 -841)">
      <g id="Ellipse_98-14" data-name="Ellipse 98" transform="translate(1368 1357)" fill="none" stroke="#0b4a9f" stroke-width="14">
        <circle cx="26" cy="26" r="26" stroke="none"/>
        <circle cx="26" cy="26" r="19" fill="none"/>
      </g>
    </g>
  </g>
</svg>
